<mxfile host="app.diagrams.net" agent="Mozilla/5.0 (Windows NT 10.0; Win64; x64) AppleWebKit/537.36 (KHTML, like Gecko) Chrome/131.0.0.0 Safari/537.36" version="24.9.2">
  <diagram id="07fea595-8f29-1299-0266-81d95cde20df" name="Page-1">
    <mxGraphModel dx="1434" dy="738" grid="1" gridSize="10" guides="1" tooltips="1" connect="1" arrows="1" fold="1" page="1" pageScale="1" pageWidth="1169" pageHeight="827" background="#ffffff" math="0" shadow="0">
      <root>
        <mxCell id="0" />
        <mxCell id="1" parent="0" />
        <mxCell id="187" value="&lt;font color=&quot;#23497d&quot;&gt;Hotmart&lt;/font&gt;" style="swimlane;whiteSpace=wrap;fillColor=none;swimlaneFillColor=#BAC8D3;fontColor=#2F5B7C;fontFamily=Tahoma;html=1;strokeColor=none;opacity=50;" parent="1" vertex="1">
          <mxGeometry x="830" y="10.5" width="330" height="809.5" as="geometry">
            <mxRectangle x="20" y="20" width="80" height="23" as="alternateBounds" />
          </mxGeometry>
        </mxCell>
        <mxCell id="186" value="" style="edgeStyle=segmentEdgeStyle;strokeColor=#2F5B7C;strokeWidth=3;html=1;endArrow=block;endFill=1;" parent="187" edge="1">
          <mxGeometry width="100" height="100" relative="1" as="geometry">
            <mxPoint x="120" y="345" as="sourcePoint" />
            <mxPoint x="120" y="345" as="targetPoint" />
          </mxGeometry>
        </mxCell>
        <mxCell id="xvLai2Src9pA2y4OmMQb-340" value="" style="group" parent="187" vertex="1" connectable="0">
          <mxGeometry x="25" y="121" width="280" height="543.9100000000001" as="geometry" />
        </mxCell>
        <mxCell id="xvLai2Src9pA2y4OmMQb-337" value="" style="shape=image;verticalLabelPosition=bottom;labelBackgroundColor=default;verticalAlign=top;aspect=fixed;imageAspect=0;image=data:image/png,iVBORw0KGgoAAAANSUhEUgAAAdgAAAKYCAYAAADQaeloAAAAAXNSR0IArs4c6QAAAARnQU1BAACxjwv8YQUAAAAJcEhZcwAADsMAAA7DAcdvqGQAAMavSURBVHhe7N0HVBRXGwbgV1FsqCD2LvYWe4ux9xZrLFjRWGJN7JpmitGYaDTWYNeIvfcWSzT23sXesIENAVHhv99lFhdYirgbMP/7nLMHdmZ25s4szjvfnbtrgmAFREREZFUJjZ9ERERkRQxYIiIiGwjTRex138f4jYiIiN5WpvRpjN8sBKyTY0rjGREREcXUo8fPwgQsu4iJiIhsgAFLRERkAwxYIiIiG2DAEhER2QADloiIyAYYsERERDbAgCUiIrIBBiwREZENMGCJiIhsgAFLRERkAwxYIiIiG2DAEhER2YBNA1b+H4HHjx/j2PETOHT4CK5evYaXL18Zc4mIiP67bPa/6Tx58hSTp0zD9r/+QpbMWZAkiT0ePX6CwBcv0KNHV9SpXQt2dnbG0kRERG+cOnMO+w8cxccN6yBD+rTG1BD37j/EmnWbUb5cSRQtXNCYGvf+lf9N5+nTZxjx/Q94ocJ06eKFmDd3Jqa7T8WSRQsw6qcfcPGiJ/wDAoyliYiIwpJwvXLtOhYuWaED1UR+l2kyT5aJz2wSsLv/3oPHj56gV8/uSJPGyZiqNpYwAQoXLoTP+/WBQ4oUxtT/L9JFfu7ceTx/7mdMeeP169e4cOGirv7fhXRKXLt+HYsWL8XGTVvU+p4Yc8hEjr+n5yV9zGNL1nHmzFn1nr40ptiebOvKlavv1G6i94GpcjUFqvw0/13myTKx8dPIkfpha3YjFON3+D73R7KkSYxnsRMYGIjlK1aiWLEP8GGF8kiQIIExx7I7d7wwbvzv+E09tm7bjoCAF8ibJzcSJUqk1zV5yh86IE6eOoXvvh+JtWvXI3Wq1MiUKaMOkO9/HIX16zfoaTlz5tDbkwp65Kif1bRUKuz34seRo7Bi5Wr4+wcgf/58et3irx07sXbdBiRV+zx23HgcPHgIZcqUwc2bNzH/z4WYMHES5s79ExcvXUKB/Pnh4OCgXycnN3ntz7+MxdRpf+DIkWNwcnJSbcoU7f7KRcaGjZvx5OkTuLjkMqaG8PK6i6XLluvjljhxYmPq2zty9Bj+XLAQdevW0fs6Y8Zs5MuXF6lTpzKWiDsnT57CvXv3kSFDBmNK3LjjdQcrV65B6VKlQv8e3tb9+/exbPlKlCheHEmSvNu/m5jy9fXFqtVr8MEHH8S63UTvA4cUyZFLndOvqkpVAlV+nj5zLjRc27RsFqHrOCbGjR2Lb7/5Grt37ULy5MlR4cMPjTnvLiAgEClTJDOe2aCC9ff3x/UbN5E9e7Zow0YGPQ3/6huUKlECc2bNwHfffo3Tp89g+oxZOsSCgoLx6JEPFi5aogLHHlMnT0T37l3hPmOmDtv06dNj+h9TQqddVlf2Ijg4SIfV5Kl/6OCT1/008nucOHES0/6YHnr17+fnr4Jyhz5JdujQDn379FYBmFCHZ4kSxTB54gTMnTNTh+vvkybrfRO7dv+NNWvW4esvh2H1yuXo17c3Tp0+rdb3XM+PihyTmjWq46gKQdP6hFSd27b/hZIlSyBZsjdv0NuSi5Ldqn1du3RGfhWqpUuVRMOG9fU+md1ujzM3bt7Sj/+CrFmzYOiQgUiVyjrjFogoLPMgNVWw7xKuUyZPxpfDh2HI0KH6Ib/LNFuxegUr9123bN2OSpU+QqaMGY2pEUnILfBYhMyq6nNt00pfSUiFlT9fPsyfvwAFCuTX4bh37z8qrLOjXdvWepl06dLi7LnzyKgqoFYtW4SZlkJd8eRR1W9oGz6qiGZNG+vAcnR0VBWjCxapsJbqWrquL3pewqVLl/H1V0PhkiuXrkISJbLTIZdDbTNZsqT64eCQAn/9tRNly5ZGypQpsWnzFt2+ChXKwc4uoVp3apQsURz29vbG3kVN2ikXEg5qXRnURYLw9vbBrl270bRJY90O6SaeMXMW5sz7E3v/2YesWbIgbVpn3Lp1Wx836WaeNGWaqp6KhalMpQv6yNGjKK72Udoq7qlK69ChQyhfvnyEqkdC9+Chw7qCX716rar+n+pqV3oWlq9YhSJFCocORlu/YaPu+s+SJbPuyh43foJeRi6U8quLEOkJMLXvtvo54fdJuocgh7rYkopVpkuvw3F1obN16zbkyZ1bvXfpdDfrmF/HYunS5brbtmCBAvq4y9/I6jVrMXWqO9au36Auth6H6YEwiWq5yI7j4ydPcPbsefWelgldX2T7JKSNo34eg6XLVuiLqaJFiqj3zBtLVJtNx0i2O2XqNMyePVffJsmSObO6CEynXy/7fvfuPSxcvET3KNxRF4BF1eukp0JeN//PBfriT3popBdH/r7kYk8uMrf/tQOjRo/Bjp279N+Gj88j/fcm7Y5qm9LmX9X7unLVGt3LIsfE1AtD9L6QWzFSuZpuq0llKwOb5OfbmDljBj7v1xd9+/XDyJ9GoWq1anj27Cl++P473ftYsmRJY8nYs3kFmyBBQiRSJ5vbt+8YUyyTEJRlSqkKy3w0sbOzs+46vXHzpjEFyJs3j9kyCWCnTjy5VCCGn/bqVdj7Uh98UDRMFZ0xQ3qkcU6jPzpkkjt3LlWBpDaehZAT9rVr1/VHiyRUlqsK95F6zQtVHYry5cvpbvB56kLg/PkL+oT4NqTdH6nwl0rTVE0fP3FCn9ClGpL7bPPm/4ka1athyqQJGDZkkD7JStf3q9evdFDIydJ92mRky5ZVv95EAkEuSNat36jXI6/Zt2+/HsH94kXEgWVnz57DYbWfY0b/pK7kflfry4Y9e/7RXfASTtIbIWQ9Fy9e0id+ed8k0KRd0j5p58ZNm3VYS/sOHjys3p+cmDplIvp/0U9f7Ehl3da1NTp1bK8fMuitUKGCel0SWrIumValSmXMnTdft/2G2raE0m/jfsHkieNRt07tCOEqIlsuquMYXlT7ZN7GmdOnoU+vnvqiTfb1sTquEoKyLWm3tF/2Q5aV18hrhVy4HD9+HIMGfIHZs9zV+/5KX0yI5MmToXnzpnD/YwqmTZ2ku54vX7mi5505e1b/Hf4+YRzG/TpGtQcqVH30vKi2GRAQoG+5DOzfT++PjHswXXARvS+kYjW/52qqZMMPfIrOn/Pno7f6d9u1Wzf8POYXYyr07zJN5sky1mb1gJUTT86cOaMdQBIUFIQAFbKRVX3hw9Ia5KQrASYn+8jIyXfY8K8xe848+Pn56W5oCb7EZid2qRonqhOeswprCdlmLVrq5aPa3/Dy5HbRoS33FaSrWLqMy6lqSshJ28fHBz6PHumT63lVWT1//lw9DzmxSshJ9RNZF3yD+nXVfqZSV2r9MX3GTNSpU0tvz9J9wjMqYKW6l6ry8JGjRqje0JWVVOj/qDCXkDl77px6X7Pr4yfzZV3SLmmfVMjSJf/iRchxzZ3HRV8UCbmoef7cN0x3uDlZlwStXFiJQgUL6AuWhw8fIqmqYqUilm08e+arj7f5xZhJZMtFdxzNRbVPFz099UWf/C0I6TEwVbYmsq2Xr17p9gvZH9kvea2JXFTJNqRt0pti6iqXaSmSp9AV9NFjx/HgwcPQq/Vj6nmVypX0vyt5v6XLP3XqkAvCqLZpZ5dIVcB2uqqVwJZeE3kQvS/Ch6t0C5t3F8c0ZJcuWYKun3ZB+w4d8PvEScbUN2SazJNlZFlrsnrAJk6cSF1RV9L/sC9dDrkKD09OHkmSJNVdyJcvX9YncBMZxCEny+zhKrPYkG4+c9INe10FmqNxgrLk2rVrOvjkil9ObGVKl0K+fCFhYU5Otg3q19P3dufMmo4DBw6GVh0xISdMuRcrAeZ56bKuLjJmDBn48+rVSyRPkUIP9sqngkoe3bt1RbasIcckqTp2cvKMjJywpftcKsgB/T/X0+RCxtLAKal0cubIHrqdSh99iNatPtHzChWUCvO2DpojKnzLlgm5AJDeB+kmNr1GLji6fuqmthtysRRd+8zJuszDSrpF7e1D2il/H8OGDda9E7Nmz8HIn0bDVwVkeJEtF91xNBftPiVNqn9GRrYl25f2m4QPYXnPLZEvYvn+x5E6LGXbTk6OxpwQ5hehcpFoOrZRbVP+Hcoo/qJFi+qu5T7qYstUMRO9D+RzrubhaqpgzUNWlonO0aNH8UnLlnCfPsOYEpHMk2VkWWuyesAKCSWpooZ/+TV27tqtQ1O60e4/eKArva+/GaGrmtq1a+qPkci9IglZ6fJauWo10qZNCxdVcb2rVavWhIa8BImMvsySNYvuvoxMKlWdvHr5Cnfv3tXP5cS7adPW0BO7tFPuCz986K2fC1/f57p6jek9WBMJMOmKXrZ8BWrVqhlanUlF+UodC1mvVCvykHvDMSHtkwpG2i2kcpTRshU/rGCx+pP7rVLFyr052Y75PTqpVqV6X7xkmd430wWAdCNfunRFT5PXSLUsohvUJqSKkvfedFEl6zp+/GTo8ZV7v9J2OQbS05DEPgnKlCmNPr176r8LqWzDi2y5qI6jVIwBLwJCezOi2if5e5FwMrVR/pbkb9WcbMtPHWtTl7ocd7nHK+uNjnTpli9XVvdKyPblvqqJvD9yEWbqHZH31nSLI6ptyvLSRhno1qrlJ2jTuiUuXHxTTRPFd/IlEi45c4QGqokpZGWeLBOdUaNH61tF0ZFlZFlrsvogJyFX1DKQSE50c+bMx++TpqhgnatO9Kv1yatvn156cIsMVJKP0oweMxYLFy3GnLl/6vlSPcrAIekmljDLnFlVFupEIWIyTU7Qct9P7vnJwB0ZbDNr9lx90uzXp3dohSCDnLy8vPBRxYq6MhCyfakmfxo9Bhs2bNb34UqrCwYZtFO58ke6+r12/YZ6I37BgoWLsW7dBmxQy3Tu1BHFVdUTk5AxkUrT28dHfwypfr06oQEolaYMspJvwtq//yA2b9mqqtxLKFK0iO62Dj84J7zL6qLiux9G6rbJgB2ptGV5S22Te63yucqpf0zHuXMX9CAwGQEu04UcswUeC9FSnaRNASvH72XgS4z7bYLuUpWBSzLYTO6Ly8ePzNsn78V+Vd3LfWupAlOpY7t46TK1naU6bKXL87V6/yZMmIiTJ0/jL1Vtde/6qR6IJF9I8qOqRuU+sQwyk78nGbhmXrGJyJaTsIrsOEo7pIdj0uSpOqhk0FBk+yR/ixJWY8f+prtsN2/equ/vvw56HbqvMigrZ44cmKj+1o8ePa4HbNWqWQOlSpbQx13uc2dVlbNp4J/87Qn5e5UubT146tRpdbFxQh3DpyhcqJBeVt4Huc8vf7+HDh9W6wrZd2lvVNuUiwr5dyd/v3IBKwOzPmneVO8T0fsgQ/p0KFXiA4uDmWSazJNl4pPwg5xs9lWJ5uSemlQKUh3J50DDkybIvTHpNpaurXclgTVw8DD0/Ky77uozDUIK32UXFam45WM3yVWlY6nNQtYr3XQpUqR4q2B9G69evdLrtlR9RkeOuYR1TNom74GEiITS23ibbZgL/zo53oGB0l0csSs2pscgquUimyftSJQocZj3OLJ9iukxkgrXXlXUkf3dRCaqYxndMYhsm3Jc5W/0bd9XInp7/8pXJYYnwSbdjZGdcOTEIeFrjXC1RLb/NuEqpK2RXRCYyDplGUsnRGuRKjA24SrkpBrTtslysTkJv802zIV/nRznyO5zxvQYRLVcZPOkHeHf48j2KabHSPYjqr+byER1LKM7BpFtU6bFpM1EZH3/SsD+26QbTbrWkvDEQkREceRf6SImIiL6r4uTLmIiIqL/NwxYIiIiG2DAEhER2QADloiIyAYYsERERDbAgCUiIrIBBiwREZENMGCJiIhsgAFLRERkAwxYIiIiG2DAEhER2UCE7yImIiKi2DH/LuIIAWs+k4iIiGImfIayi5iIiMgGGLBEREQ2wIAlIiKyAQYsERGRDTBgiYiIbIABS0REZAMMWCIiIhtgwBIREdkAA5aIiMgGGLBEREQ2wIAlIiKyAQYsERGRDcR5wMr/NfDo0WMcOXocBw4exuUrV/Hy5UtjLv1b5H149swXAQEBxpTYs+a6iIjeV3YjFON3+D73R8oUyYxntvfkyRP8/Mtv+OGnn3Hq9BkcPX4Cq1evxbw/PeCYOjXy5HZBwoQssv8NL168wE8//6JC8QUK5M9nTI0da66LiMgajp86i+WrNyB71ixwcEhhTA1x994DzPVYBnt7e2TMkM6Y+vbCZ2icpdfTp08x/Ovv9Ml47colWOwxF/NmuWPV8sUYO2YUzl/0hL+/v7E0ERFR7O3ddwiXrlxTQbpUB6pJSLgu1fNkGWuKs4DdsetvPHr8GP369ESaNGb/f56qWIsWKYxB/fupqwwHYyoREVHsNW9cX1enpkCVn+a/yzxZxpri5D9cDwwMxMhRY5A9ezZ07tQBCRIkMOZYdvv2HUx1n4HDR44irbMz6terg+ZNGyNJkiR6XZOm/IGCBfLj+fPn8Fi0RJf5Xdw64qOKH2Lx0uVYsXIVkidPrqfVrFFNb08q6FFjxur1XPS8hGXLVyKBCvdGDeqjTasWet1i2/YdOHnqNKpVrYw58xbAMXUqDB08AHfueGH12vXqimc/nj17hrJlSqPXZ92QKWNG/TpLTPtx8NBhpHFyQqOG9dGsSWMkTZoEV65cjXJ94dtx/MRJFC/2AXp066L33SSybSRLllR3yXssXoqNGzfrZWV6q5Yt9Dy5Xypd9bLdxo0a6PnypxFdu8S58xcwzX2mblM5Nd+1TUssVcfTtK7AwJc4dPgwVq1ZhxMnTyFlypQRjjMRka2FD1TTNPm9o+sn79Q9LOLFf7ju5+ePa9dvIEeO7NGGqwx6GjT0S5QuVRIe82dj5A8j9El6yh/T8fr1awQFBcHbxwfzPRYhsQrWGe5T0Ltnd0xV87/69jt1wNJjziz30GmXLl/R6w0KCtYhOWHiFB1E8rpffx6JY8dPYOLkaXrd4rmfH7Zu+wuLlixTFwPtMeCLvjqIt6rAK1myOKZPm4RFC+aiUMECGDd+Ivwi6dY27UfxD4rCY95sjB87Bi9fvsKNGzf0z+jWZ2rHuvUb0f/zPli+eAFy5cyh2y8XCyKqbfg8eoRhX42Ak6MjFnnM0w8x/vdJOgAtiUm75N75oCFf6uBfuWwheqnjvHLVGhw9elzPF/fv31eBf0Rf4CzxmI/ff/sVZ86exZq1G4wliIhszzxIJVitGa6WxOkIIidHJ+M3yyTk1qjqqUzpUqriqaeDMIeqevv07IEDBw7pysmkhKrmGtavq5cpVbIk8ufPh6xZsqBWzephpkm1aq5qlUqoU7umXiZXzpw6iA8dPoorV68ZSwCpUqVC/359UEwFl/yeVFVdUjlWrVxJv04eFcqXxePHT/SI6PDM96Npk4+RNq0zMmbMgE4d2uo22dsnjtH6nNI4odunnfUxkHV80qIZAl8G4sFD72i38feef/TFhlStyZMl049mTT/W679957axhbCia5dsUyrrGtWrhnl/unZx01WxSdasWfBFv956wJOjY2pkyZxJ9y5c8PTkiHEi+s+Kk4BNmDAB7BLZ4dZtyyd2ExkAdevWbRUaJWFnZ2dMhQ6P3LldcP3GTWMKkC9f3tBlpCiWe7kuLrkiTHv16pV+blK8WLEwVXTGDBng7JxGBcgjYwqQJ48LUqdOZTwLIeEiISwfLVqzbr3uipYqMTDwhbHEG6b9KFq0cJj9MBeT9UnFat6OFMmT4/Wr1zrwotqGrPviRU99cSAVumxDHtLl/ERVvz4+ES8KTKJqV2Tvj7Ozsw51c1LxSrW7b/8B/OmxCDt37daD2GT9RET/hvBdxKZK1jTN2uIkYJOp6sklVy590o/qBPv6dRD8AwL0PVVLwoelNSRKlEiHmNzbjYx0yQ4YPAwzZs6Bn58fMqTPgIIFCiCxeq0lpv2QyteSt12fJVFtQ7rRX1jYn8SJ7fU9cJdcOY0pYUXXrsjeH9PFjMnpM2fh2s4Ne/7Zp5/nzZNHVbrZ9e9ERP+G8OEq3cLm3cW2CNk4CdjEiROjetUq2KGqGM9Ll42pYcmAJRn8kzlzJr2M2VgsPPP1xU1VOUl35LuSQTzmvL29cVVVbI6OjsaUiKSiky7SgQP66XuP5cqWRgFVQUcmefJkuvq8oC4ozPfD5G3XZ0lU25DjnTlTRj29dKkSev3mDycny/saXbuien9umPUu/L1nr+6K79G1CyqUL6fXkyF9emMuEZHtyWdgzcPVVMGah6wsY01xdg9WTrIfN2yAgYOHY/uOnfqbf6TSunf/PqbPnI0hw7+Br+9z1KtTG+s3bNLdi3ISlwE5MuI3XVpn/UUU72rZilWhIe/vH6CfZ8uWVXcvR0Yq3JeqevbyuqufS1fp+o2bdXstke7T6tWqYu26jTh67LjeD9lXGenrdffuW6/Pkui2IRc0hw4fwe6/9+rpwlcFoWxHKtWkSZMia5bM+t62aQBTdO0yXSitWLUmzPuzfMVqHc4mmTNnxs2bt3TwCulW3rRlq/6diOjfULFCGeRxyRlhQJMpZGWeLGNNcRawEghdu3RCn9494D59NqrWrIsyFSqjSfPWqoK8jmGDB+jKqmSJYnDr2B5Dv/wG9Ro1RY06DdTJ+rb+qIw1Pifb2a09Zsyag7oNm6B67fqqMr6lR+nKIKDI5MyRA53at9UXB61cO6JLt57IljUr0jhH/hEn2Y8hg77ADyN/RunylVChUnV1obBKz4vN+iyJchuquv36y6H6HmrFKjX1/jZr6YoHDx6GflSmYYN6uP/gASpVrYWFi5bGqF1yoaSXGTJcvz9NWrTSg6uqVPrIWAJ6oFkWFd7y3rq2d8OUadNRqeKHxlwiItsrXrQQenXrGCZcTWSazJNlrClOPgdriXwOU+57Smha+npEaaZUTtItKZXTu5KBQf36D0Lf3j1RqmTx0O/NlUoupqQSfP7cDylSJLfYZkui2o/YrM+S6I6V7Kt8BEe+Liz8x6RMbZAuZ9PApZi0KybLyIhhechnkomI/mvixedgLZFgk1GukZ2cJQhSpnSwSrhaItt/m3AV0lZp09uEYVT7EZv1WRLdsZL9lPnhw1WY2mA+Kjgm7YrJMtIehisR/b94tzP5e0w+KiQDdJIksTxCmYiI6F3Emy5iIiKi91m87SImIiL6L2HAEhER2QADloiIyAYYsERERDbAgCUiIrIBBiwREZENMGCJiIhsgAFLRERkAwxYIiIiG2DAEhER2QADloiIyAYifBcxERERxY75dxHzy/6JiIisgF/2T0RE9C9gwBIREdkAA5aIiMgGGLBEREQ2wIAlIiKyAQYsERGRDTBgiYiIbIABS0REZAMMWCIiIhtgwBIREdkAA5aIiMgGGLBEREQ2EOcBK//XwKNHj3Hk6HEcOHgYl69cxcuXL4259G+Q4/306VMEBQUZU4iI6F3F6f+m8+TJE4z/fQq2bNuOrFmyIEnSJHj86BECXrxAn549UL9eHdjZ2RlLk63Ixc3vk6Zgwrhf4OiY2pgaPT8/P/0zefLk+icRUXx1/NRZ7N13CM0b10fGDOmMqSHu3nuA5as3oGKFMihetJAx9e3Fm/9NRyqm4V9/hxcqTNeuXILFHnMxb5Y7Vi1fjLFjRuH8RU/4+/sbS1N8NHP2XP0gIorvJFwvXbmGuR5LdaCayO8yTebJMtYUZwG7Y9ffePT4Mfr16Yk0acwSP2FCFC1SGIP694ODg4MxlYiIKPZMlaspUOWn+e8yT5axpjjpIg4MDMTIUWOQPXs2dO7UAQkSJDDmWHb79h1MdZ+Bw0eOIq2zs+46bt60MZIkSaLXNWnKHyhYID+eP38Oj0VLYG9vjy5uHfFRxQ+xeOlyrFi5SndjyrSaNarp7UkFPWrMWL2ei56XsGz5SiRQ4d6oQX20adVCr1ts274DJ0+dRrWqlTFn3gI4pk6FoYMH4M4dL6xeu15d8ezHs2fPULZMafT6rBsyZcyoX2eJaT8OHjqMNE5OaNSwPpo1aYxkyZLCx8cHc+d7YMfOXUis2i/tdG31CVKnDumyPX3mLBYsXAzX1i0x/8+FOH7yJCqUK4t+fXvh3r37mOY+E+fOnw+dJusXpvbXqF4VCzwW69cVKlgA3bt20cdMRNZF7HX3LmbNnoddf+/R62vbphXq1K6Fe/fv4edfflPHzVMvl1Htc6qUKTFk0Bfq/UmL7Tt2YtPmrTh77jwyZ8qI1mo/6tWpxe5+IopT4QPVNE1+7+j6SYSu47cVPkPtRijG7/B97o+UKZIZz2zn2TNfLFqyDJUrf4TcLrmMqZbJoKdhX32LWjVroP/nfXRorlu/EecuXEDZ0qXw+vVrbNqyTYXAXnzwQVH06dUDuXLmwMTJU3Hs+AkUK1oEvXp2D51WqmQJOKuK2d8/AEuXrcD+AwdRToXjZz26okqlili1eh3OX7iIcmXL6Gr6lAq2JSqkHzx8iA7tXHW4J0qcWIX2GhQtWhhdu3RCi+ZN8eTJU6xctUa3L7GaH55pP6pVqYwBX/RD7Vo1dLCnShlSpX/5zffIlSOHCqkBOoyOqtDbvHU7ypcroy8Ybt66rcPuibow6N61M1p90hwHVFCvXrMWd+/e04HZskUzPe3iRU8V+KXCtF8uKLp366JDMkGChPht/EQUK/YB0qZ1hpfXXRw4eEhttzaSJk2q23Pt2nUMGfa1vggYPmQQaqvjv3nrNlxR+1Hxw/KorI7Vo8dP1Pvngq+GDlYXBFX1cb2gtn3q1Bl06tgOHdXxKlu2FP6YPgsZMmRAtmxZ9bqJiOKCg0MK5HHJictXr+lg9X3uZ7VwFeEzNE5HETs5hlRZkZHwXKOqxDIqSBs1qKerqByq6pUBUAcOHFIV2wVjSaCECouG9evqZUqVLIn8+fPpgVO1alYPM01CzVzVKpVUVVZTL5MrZ070VmF86PBRXFFvgEmqVKnQv18fFFMBLr8nVdVtDxVWVStX0q+TR4XyZfFYBY6MiA7PfD+aNvlYh1rGjBnQqUNb3aYdO3cjpQpaV9dWofMkuGV9+1XwmSRKlAgd2rbR7cyQPr0+Jjdu3sInKljluJimnTpzRlfzJlIhd+3ippeRtsoylT6qiI2btui2hSedGus2bNJVb41qVfUFg5OTo66eZd1ygRRyHOz1Q6peeS4VqnTv91QXK7ItmZ4nd26ULFFMXbS8ea+IiP4fxEnAJkyYAHaJ7HDr9m1jimUyAOqWqtzKlC4ZpntRQih3bhdcv3HTmALky5c3dBnpcZbqzUVVx+GnvXr1Sj83KV6smJr3pos6o6q0nJ3TqKB8ZEwB8uRxQerUqYxnISSYJITlo0Vr1q3XXdE+6jWBgS+MJd4w7YdUvOG7SWU9165fR8nixZE82ZsrHwmswoUKwNPsgiBz5ky6EjSxs0ukQzVd2rTGlJBpr1+9RlBQaM8/ChYsoI+ZiQ5C1Zb7Dx6o9kb8SJQMLruq9k2q2YOHjuh9lMcFT0993/zxk4gXEeakWpZu5z17/8GsOfNw7PjJMIFPRBQXwncRy8N8mrXFScAmU0HikiuX7sq0VEGZvH4dBP+AAN1Fakn4sLQGqRIlTOXebmQkQAYMHoYZM+foj6pkSJ8BBQsUQGL1WktM+yGVb3jy2dMXaltJk0acJ2yxj0LumQa+CFTVasTPvpraG55DCgf06tEN6dNF3pUi9187uHXDuXPnVeVrry4SCumLFiKiuBQ+XKVb2NQ1bKuQjZOAlS7H6lWrYMeu3fC8dNmYGpZUPBI6UrXJMmZjsfDM11ffk5RuyHcl9xTNeXt76+rN0dHRmBKRVK7SFTxwQD89+Klc2dIooCroyCRPnkzfA5b7k+b7IeRYyEAgqQ7NLzb8VBUp3b8uLi7GlNi7oSp9OWYm0oZTp8/AKY2TxfvFpuNurwJS9s38IfewU6RIoZeTnxLGpn2Si5Ldu/egY3tXtGvbWi9fulQJ3b1MRBSX5HOu5uFqqmDNQ1aWsaY4uwcrJ9+PGzbAwMHDddUj9/Wkmrt3/z6mz5yNIcO/ga/vcz3wZv2GTToQ5EQuXZoy4jddWmfkyf3u4bNsxarQkJeBT/JcBuNI93JkpMJ9qSpLGRwkpAt4/cbNur2WSJds9WpVsXbdRhw9dlzvh+yrjCaWkbpysXHy5Gns/nuvni6PLVu368FLpVWgvSu5IFi+YrU+dqZw3bBpi96uBKx0H0u3sIxCFjJNjvvK1Wv0CGRTgMpArw1qP03dyjIK/ODhI3ofZBnZz3Squr10+UroMjKSeJcKXSKiuCRfIiEDnMIPaDKFrMyTZawpzgJWTsYykKdP7x5wnz4bVWvWRZkKldGkeWtVQV7HsMEDdOUjA2TcOrbH0C+/Qb1GTVGjTgPcvHlbf1TGGp+T7ezWHjNmzUHdhk1QvXZ9VRnf0qOVze+HhpczRw50at9WXxy0cu2ILt16IlvWrEjjHPlHnGQ/5GMsP4z8GaXLV0KFStXVhcIqPS+nqm4HD/xCf9SmZt1GqFG7gf6Yy4hvvkSGDOn1Mu+iSqWP9MCpJi1a6WM4cMhw3X65yBFZs2RG08Yfo/+gYXBt76bvzUp7ZUT2yFG/oHqt+urYNED3z/ogSAdpyJ/NhxXK6wuApi3a6H2S0dyubVriobc3GjZprtclHxOSAWBERHFJvqGpV7eOYcLVRKbJvHf5FidL4vSrEs0FBAToLkYJTRmMFJ40UypE6b601K35tmSEbr/+g9C3d0+UKllcb1+YPqYSE1JpPn/uhxQpkltssyXR7Yfc05V1vU07oiKf1ZVK+evhQ/S97KjaK8dA9in8Vx9G95WIll4Xm+NJRPQ+izdflRienIhl5GxkQSUjfeWjLNYIV0tk+28bBtJWaVNMw1VEtx8SUrYKpejaK9u1FKIyLbJwFZZeF5vjSUT0XxJvAvbfJh8VkoE8SZJYHqH8X5FCBZ98AcTbXAQQEdG7izddxERERO+zeNtFTERE9F/CgCUiIrIBBiwREZENMGCJiIhsgAFLRERkAwxYIiIiG2DAEhER2QADloiIyAYYsERERDbAgCUiIrIBBiwREZENRPguYiIiIood8+8i5pf9ExERWQG/7J+IiOhfwIAlIiKyAQYsERGRDTBgiYiIbIABS0REZAMMWCIiIhtgwBIREdkAA5aIiMgGGLBEREQ2wIAlIiKyAQYsERGRDTBgiYiIbCBeBKz8fwPPnvkiICDAmPJ+eP36NZ4+fap/2tq/uS0iInp38SJgH3p7o2efzzFu/EQEBr40psZ/N27eRO/PB+qftvZvbuv/AS9YiP6/HD91FpPd5+LuvQfGlDdkmsyTZawpXgTszp1/w8nJCZeuXMH1GzeMqUS2wwsWov8ve/cdUhlzDXM9loYJWfldpsk8Wcaa4jxgpYrYvWcPunTqgIoVymP333t0lzEREZG1NG9cHxkzpAsNVPlp/rvMk2WsyW6EYvwO3+f+SJkimfHs33Hk6HFcuXoVzZo1RhpVxS5bsQrly5VBiuTJjSVC3L59B2PG/qYf2//aiQzp06mfu3Di5CkUL/YBAgMDMWHiFDx/7gcXl1zGq4Bt23dg1Zp1KFWyBOzs7HDHywsLFy/FbxMmYdJUdxw7fgI5cmRHurRp9fKnz5zFb79PQtYsWdQyE7F46TJU+qgiEidOjA2btuCbET/AfeZsdayewzlNGuw/eAjVqlSCk6Mj/P0DsHnrNvw+aSp+/e13bN32F+yTJEFu1Z6ECRPqi4kRP/wEx9SpsUXNk3VJW14EvkTBAvmRKFEi3QbptoxuW8L8mGzavBUBL14gX948oesJz3QskqtjO+63ifhl3Hh1/I+F2X/pot9/4CAmTp6GX8dN0MvLfpm3T5bZsHEzfhg5WrfvwYOHSJEiOcZPnIz8+fIidapU0a7H9H49fvwEJ06cxFfffo+Vq9citTo2mTNlwoKFi/X+r167Xk9zyZUTCRIk0NuX47N1+18YOWqMPtYXL3qiQP58SJUqpZ5v2s+kSZNi9Jhx6jEWx9U2chr7OXf+Akz9YyauX7+Bg4eOYO36jfq9Cfk7CrtvZ86eQ7asWZHW2Vmvm4jeTw4OKZDHJScuX72mA1V+njh1NjRcO7p+on++i/AZGqcBK4OaZsyei6oqNArmz4+UDilVYJ7Ec18/FC5U0FgKuHXrNgYOGY6SxYtj+NBBqF2zBnbs3I01a9epIMyMcmXL4OXLl9i0ZRvSq+CVk63JKRWYly5fRmUVkhKwcvJ0cnJE1y5uaNPqEx027jNn4UNVPUuo31TbmjV7Hq6pk2/zpk3UMi2RMqUD/lywCOs2bsLggV+ga2c3JFLrcp8xG0+fPUPtWjV06J2/cAGnTp1Bp47t0LGdK8qWLYU/ps9ChgwZkC1bVh0wS5etwOEjR1GhfFn0+qy7PqlPVyfytGmdkSe3i67e5833iHZbl69cxbCvvkUtdSz6f94HH1X8EOtUUJxTbShbupQO9PDkWCxZulyHSfduXdC2TSsVWgnx2/iJKKbaIW3w8rqrLwxaftIcbh3bo2aNali7bj18fZ/r90Ta9+eChVi/aTMG9u+HT906wdExtQqsGfrYyfLSvujWY3q/dv29Fx98UBR9evVArpw5VCBP1Rc9xYoWQa+e3UOnyQWSXGRIuM6aMw/Hj5/CV8MGo9unbjqA5f59yeLFVMimCt1Pf39/9Oj+Kdq5tsbNm7ewfsMmVK5UEUWLFEaRwoVwVoXnsCED0LplC3xQtLA+ZjPV36OE7vChA/XxSawuBsaN/13NL6KPDxG9v8KHrK8qyKwVriJ8hsZpF/EFVXl43b2LkiWK6+f29olRt04t3WUsIWDy955/UKhgAXRo31af5OTRzrUV8qpq7W1IBSQn048bNtDrkGAoW6Y07BLa4d69+8ZS0BXWZ+rE/GGFcjqMHz1+jL927UaPrl1QTIWBvK5C+XL4pEVTvAh4YbwK+sTds0dX5MieTS+TJ3dutW/FdPCaq1O7pr5IkIpd9r1hg3o4d+6CDi8Z8BXdtiRk1qjKrowK0kbqtbIe2Wafnj1w4MAhnDsfdnvmkiVLqi8uZHl5nbxeKvSNqmKW9WbNmgVf9OutL1Jk21kyZ9LhfcHTU4fig4cPsUO1b4AKdVP7Sqhga9+2NV69emVsBdGux6SECvaG9evqtpQqWRL51fLSe1CrZvUw0y56XtLLyz3TfaoyluOcIUN63bMgx0F6PY4cO66XEU5pnFT4dtb7Ke/1Jy2aIfBloGq/t76okoumhOrCRX5K+2TaFfWPTi7ceutgz6m3L++VPJauWBWm3URE0YmzgJWT+V87dun7rubdb0VUSMnJ7vSZc/q5LHfr9m3kzZNHB7CJg4OD7vJ7W0FBQbh9xwsHDh7Glq3bMWfen6ryuoUXLwKNJYDMKgyyZM5sPAN8vH1gr07kefK4GFNCSIBKAJuTCwPp9t6z9x9daR07riry58+NuSFkX0zdncJZ7b8E14sXL2K0LVlOqvoypUvqqtxEgiS3qoKv34h84E5BdaEiy5nI64uq6u3+gwe6e1T4qcrv1Okz2Lf/AP70WISdKlClGpT34pHPIx1qmTJl1MuaZMmSWVeS5qJaj0m+fHlD90EOiVSR0sUffpopvKVbPHGixLh2/bp+D+UhFad8zOuG2QA5qXxTp05lPIPunXj96rXuko7MvXv3dI+IXAyYyPtUvFgxfRtD2k5E76/w91zlYT7N2uIsYKUL8e89ezFl2nSULl8Jpcp9pB+VqtbS99DWb9xk9c/FSoDI/cDvfxyFJ0+e6ECQcEmeLOpu8Zfq5B4UHBTh3mbChAmQwKwrdvuOnejg1k1Vo+dVCNmjcKFC6g3MYMyNmZhs6/XrIPirY2Nvb6+fh2deScZEqpQpEaguMILVduUetGs7N+z5Z5+eJxcDObK//YWMtdYTntxntkSq/Pp16xjPYkfWbZ/EXoVqxH8WEs5BQRx8R/S+Ch+u0i1s6hq2VcjGScBKV6gMBipfriy2blqL7ZvXh3ksWTgfd1SVKV3IUsnkzJEDh48eha+vr7GGkErxzNnzxjPLZDty781EuqNl0Irc25R7meXKltbdujIYJiryESI5wcpFgTkvr3s6qIUM2tm9ew86tndFu7at9bpLlyoRocKNTky2lTRpEl1le166rPfR5Jk6PnIfVLpFI3NDVbeynIm8XqpM6VKVylQueuSeuHRRS2jJfmRIn95YGkjjnAaBL1/qgUXmpAtXqm+T6NYTW3LB8vLVS91tLOs0f0j1HlP29knURYxdmNCUdUvPgPntCXHlylXdW5I8+b87AJCIrGf56g1hwtVUwZqHrCxjTXESsHKfce++/freltznkntg5g8ZMfpRxQq6C1m6E6tVrYxnz55h/MQpuvtTgmWa+0x9MjSRkJTRujJyVbpkJTiOHjuOLSrITaRSs1MnVekSlvmmbmoJ8qhkzJBeD0Za4LEYPj4hISL3bKXb00TCKV26dLh0+UpoV+tZVcnuUqH7NmK6rXp1autBOxKOsi+yzWXLVyJd2pDBUpGR+4zLV6zWy5vCVUYsV69aRa83c+bM+qLEFMJyjDdt2ap/F9Kd36JZY4z59Tddsd+7f19fLHksXIIkKvhNoltPbMm+Zc+WTR8fGTQm5H2Ubujo3kdz8reQNElSHDh4SN82kIf8/UhIy8hu07rlb23R0mX6nnBkPQZEFP9VrFBGD3AKP6DJFLIyT5axpjgJWAk+GREa2SAlue9VudJH+qMVUsnJPcPRI7+Hs6qevh7xg763+XGjBroKNdekcSN9oqxcvQ7Kf1RNh1vrVp8Yc6U6dETfXp9h/ITJaNG6Hdq7ddXLywCqqEgV3blTe31Pr1HTlqj/cTN8+c13aK6CxnTfUdrs2qalvnho2KQ5XNu76a5uGS38NmKyLSGDp2R07tAvv0G9Rk1Ro04DFWi3MXTwAH1/OjJV1HHNmDEDmrRopV8no7M7tW+rK0AhQSL3U5s0b633QbrwK1X8UM8Tsp8N69fTo7lXr1mvRzI/fOitewVSpEhhLBX9emJLLqS+6NtLd4NXr11fH5+qNeth7bqNoR/TiQkZ3CQjkJcsXYEyFSrj0x699CCmvr0/w/37D1C7/seo27AJ+vUfpJeTUeZE9P4qXrQQenXrGCZcTWSazJNlrCmBqmJC+8i87vsgU/o0xrP4TaoW+WiGjDht0/pNiAo/Pz89MCayrl/ZZVlG5psG08SUnITlIQOxImO6dxxd13N0YrIt2Rf56It0G0sFGhX5TOnBQ4fx9fAhuhqTzwzL51ctfaQnJts2d+HCRfwybgJ++nEE0qtK3uRt1/M25G9Aeisk2N/2fTSRCyw5DtL9a74OaXNAwAs9rN98QBoRUWTCZ2icVLBvS7oXJ091193DclKVx87df+tuwdKlSxpLvSEn86jCTU6YsT0pS4hFFxay7XcNVxGTbcm+SDUWXbiGJ6GqP6piIVxFZNuWQF+0ZJn+OIuM3BUyAnrufA/9+VbpmTAXk32ILXn/5HOvsQ1XYToO4dch7ZbpDFciiq33ImDTp0+v742N+H4kPqxcA2U/rILZc+Zj0IDPo7zfSGHJR1UkACML1ZiQwJGu3n/27UfzVq565HfL1u119710bb9L2BER/Ze8t13ERERE8cl72UVMRET0vmHAEhER2QADloiIyAYYsERERDbAgCUiIrIBBiwREZENMGCJiIhsgAFLRERkAwxYIiIiG2DAEhER2QADloiIyAYifBcxERERxY75dxHzy/6JiIisgF/2T0RE9C9gwBIREdkAA5aIiMgGGLBEREQ2wIAlIiKyAQYsERGRDTBgiYiIbIABS0REZAMMWCIiIhtgwBIREdkAA5aIiMgGGLBEREQ2EOcBK//XwKNHj3Hk6HEcOHgYl69cxcuXL425FN/J+/fsmS8CAgKMKUREJOL0f9N58uQJxv8+BVu2bUfWLFmQJGkSPH70CAEvXqBPzx6oX68O7OzsjKUpPpJg/eGnn1G2TGk0btTAmEpEFL8cP3UWe/cdQvPG9ZExQzpjaoi79x5g+eoNqFihDIoXLWRMfXvx5n/Tefr0KYZ//R1eqDBdu3IJFnvMxbxZ7li1fDHGjhmF8xc94e/vbyxNREQUexKul65cw1yPpTpQTeR3mSbzZBlrirOA3bHrbzx6/Bj9+vREmjRmiZ8wIYoWKYxB/fvBwcHBmEpERBR7psrVFKjy0/x3mSfLWFOcdBEHBgZi5KgxyJ49Gzp36oAECRIYcyy7ffsOprrPwOEjR5HW2Vl3HTdv2hhJkiTR65o05Q8ULJAfz58/h8eiJbC3t0cXt474qOKHWLx0OVasXIXkyZPraTVrVNPbkwp61Jixej0XPS9h2fKVSKDCvVGD+mjTqoVet9i2fQdOnjqNalUrY868BXBMnQpDBw/AnTteWL12vbri2Y9nz57pLtJen3VDpowZ9evC8/cPwPYdO7Fp81acPXcemTNlROtWn6BenVq6G/xd2jNsyEB1YWKHzVu26v196O2NEsWLoVOHdsifLy+uX7+B3ydNRU/VvtwuufR6hJ+/P8ZPmIQqlSvhwwrlcOXK1Wj36dz5C5jmPhPHT5xEOTXftU1LLFVtNXURBwa+xKHDh7FqzTqcOHkKKVOmjLAPRERxIXygmqbJ7x1dP4nQdfy24kUXsZ+fP66pk36OHNmjDVcZ9DRo6JcoXaokPObPxsgfRugT95Q/puP169cICgqCt48P5nssQmIVrDPcp6B3z+6YquZ/9e136oClx5xZ7qHTLl2+otcbFBSsQ3LCxClI4+SkX/frzyNx7PgJTJw8Ta9bPPfzw9Ztf2HRkmXqYqA9BnzRVwffVhV0JUsWx/Rpk7BowVwUKlgA48ZP1KFlyaXLl3Hjxk0MGvA5VizxwIhvhmP5ilV6YJd4l/ZIQM+aMw/b/tqJH777Wh+nKpU+wtfffo8LFy4iU6ZMSK2CeOeu3XpQkomnCvJLV64gX748ePnyVbT7dOr0GQwa8qUO95XLFqKXOqYrV63B0aPH9Xxx//59HDx0RF/MLPGYj99/+xVnzp7FmrUbjCWIiOKGeZBKsFozXC2J01HETo5Oxm+WSaisURVVmdKlVBVUTwdPDlX1ygCoAwcO6WrKpESxD9Cwfl29TKmSJZE/fz49cKpWzephpkl1aK5qlUqoU7umXiZXzpw6iA8dPoorV68ZSwCpUqVC/359UOyDovr3pKoS69GtC6qqyk9eJ48K5cvi8eMnekS0JdLt3bNHV91+R8fUyJM7N0qWKIbzF97sg4hNe+RiZcfO3XpZeY28VtYhj6UqxOUapmaN6nqktlSmQo7tXzt2oWKF8rpXwN4+cZT7JMtL9VyjetUw70XXLm5IliypXqfImjULvujXGwXUsZb9zJI5k+5JuODpydHhRPR/JU4CNmHCBLBLZIdbt28bUyyTAVC3bt1WAVsyzGjitGmdkTu3C66ritAkX768octIoMi9XBeXXBGmvXr1Sj83KV6sWJgqOmOGDHB2TqNC5ZExBciTx0VXgOYkcCT0pAJds2697pr1Ua8JDHxhLBGRdANLyO3Z+4+uOI8dP6m7tc3Fpj337t1TFxOZdZiZyDpkXVeuXtWDxYoULqinnz5zTv/08rqrwv0i6tSqGbq9qPYpsvfCWYWzXLiYk4pXqt19+w/gT49FunKWNsj6iYjiSvguYlMla5pmbXESsMmSJYNLrly4eNEzypPu69dB8A8I0PdULQkfltaQKFEiHV5ybzcyEpQDBg/DjJlz4OfnhwzpM6BggQJIrF4bGbn/2sGtG86dO4/Eie1RuFAhHZ7RiUl75GNN9knsVVBGfDtfv5Ju9GBd6VarUllVoX/p+6T79h/UVWamTCH3V6Pbp8jeC9OFi8npM2fh2s4Ne/7Zp5/nzZNHVbrZ9e9ERHElfLhKt7B5d7EtQjZOAjZx4sSoXrUKdqjKxvPSZWNqWFLZJU2aBJlVVSbLmN87fObri5uqmpIuynclA3vMeXt746qq4hwdHY0pEUmVJ92mAwf00/cjy5UtjQKqgo6MhOPu3XvQsb0r2rVtrZcvXaoEnJwibiM27ZGglupSQtKcrCtnjuxInjyZfl61aiXcUZXr8RMnsHvPHlSvViW0Go1un6J6L+Tessnfe/bqbu4eXbugQvlyej0Z0qc35hIRxQ35nKt5uJoqWPOQlWWsKU4CVsiJ9+OGDTBw8HBd3cm3AcmApXv372P6zNkYMvwb+Po+R706tbF+wybd5Sgndqm+ZIRturTOyJPbxVhb7C1bsSo05GWkrzzPli2r7l6OjFSUL1X1LN2sQrpP12/crNtriVxQpEuXTg+wkvYLGUm8S4VueLFpjxwH6TJfuHipfo2QdSxaukzfgzZVnXKvVbp4f/71Nz2qOm/ePHq6iG6fTBdFK1atCfNeLF+xWoezSebMmXHz5i0dvEKCf9OWrfp3IqK4Il8ikcclZ4QBTaaQlXmyjDXFWcBK5dS1Syf06d0D7tNno2rNuihToTKaNG+tKrbrGDZ4gK7wZCCQW8f2GPrlN6jXqClq1GmgTuC39UdlrPE52c5u7TFj1hzUbdgE1WvXV5XxLfT/vA+SJwup+izJmSMHOrVvqy8OWrl2RJduPZEta1akcbb8ESe5xykfZ5GPzzRs0hyu7d30gCEZRBRebNqTNGlS9O39Ge7ff4Da9T/Wr+3XfxC6feqGDyuUN5YKaUflSh/p3gGpXs3XGZN9kosivcyQ4fq9aNKiFTJmzKBHLJtIoGfJklm/j7KfU6ZNR6WKHxpziYjihnxDU69uHcOEq4lMk3nv8i1OlsTpVyWak6/ck65UCU3ze3om0kyppqSrUqqpdyWjYyWE+vbuiVIli4d+l66EVUxJxf38uR9SpEhusc2WRLYda7RHyEjdgIAX6jimCB289DZisk8xWUbaIQ+plImI/h/Em69KDE+CRAbiRHbClrBImdLBKuFqiWz/bcNM2iptimm4iphuJzbtEXJ8pE2xCVcRk32KyTLSDoYrEf0/izcB+2+TjwrJoJ0kSSyPUP63xbf2EBHRu4k3XcRERETvs3jbRUxERPRfwoAlIiKyAQYsERGRDTBgiYiIbIABS0REZAMMWCIiIhtgwBIREdkAA5aIiMgGGLBEREQ2wIAlIiKyAQYsERGRDUT4LmIiIiKKHfPvIuaX/RMREVkBv+yfiIjoX8CAJSIisgEGLBERkQ0wYImIiGyAAUtERGQDDFgiIiIbYMASERHZAAOWiIjIBhiwRERENsCAJSIisgEGLBERkQ0wYImIiGwgzgNW/q+BR48e48jR4zhw8DAuX7mKly9fGnPJVoKCgvD06dN3Ptby/j175ouAgABjiu1IW6XN0nYiovguTgP2yZMn+P7H0WjYpAXG/PobJk9zxxcDBqNB4+ZYu24DXr9+bSxJ1vb06TP0+XwgTp46Y0yJnRcvXmD0L2Oxeet2Y4rtSFulzdJ2IqK3cfzUWUx2n4u79x4YU96QaTJPlrGmOAtYqUSGf/2dPkGvXbkEiz3mYt4sd6xavhhjx4zC+Yue8Pf3N5YmIiKKvb37DuHSlWuY67E0TMjK7zJN5sky1hRnAbtj19949Pgx+vXpiTRpzP7/vIQJUbRIYQzq3w8ODg7GVCIiothr3rg+MmZIFxqo8tP8d5kny1hTnPyH64GBgRg5agyyZ8+Gzp06IEGCBMYcy27fvoOp7jNw+MhRpHV2Rv16ddC8aWMkSZJEr2vSlD9QsEB+PH/+HB6LlsDe3h5d3Drio4ofYvHS5VixchWSJ0+up9WsUU1vTyroUWPG6vVc9LyEZctXIoEK90YN6qNNqxZ63WLb9h04eeo0qlWtjDnzFsAxdSoMHTwAd+54YfXa9eqKZz+ePXuGsmVKo9dn3ZApY0b9uvAsrWfYkIF6O4cOH8Hc+R44feYsihf7AN0+dUOhggVCj4t0pXssXoqNGzfr582aNEarli2QLFnSWO//48dP0K//ILWtzvC8dFkvo9fdtEmY/Zf7nfv2H8TsufNx4+ZN5MubFx3atUGZ0qX0euTe6w8//az3v3GjBvo18idlvk958+RGi+ZNUb1qFdW2xPD3D8D2HTuxafNWnD13HpkzZUTrVp+gXp1asLOz0+uQno2Fi5fpdiVKlEi/Pkf27HCfMQsTxv0CR8fUuOPlhXXrN2L333vV73fxQdHC6N61iz4WREThhQ9U0zT5vaPrJ6HTYite/Ifrfn7+uHb9BnLkyB5tuMqgp0FDv0TpUiXhMX82Rv4wAidOnsKUP6bre7QSAN4+PpjvsQiJVbDMcJ+C3j27Y6qa/9W336kDlh5zZrmHTrt0+Ypeb1BQsA7JCROnII2Tk37drz+PxLHjJzBx8rTQ+7/P/fywddtfWLRkmboYaI8BX/TVQbxVBWbJksUxfdokLFowVwfiuPET4RdJt7al9UgQrleh6T5jtn7+15b1OqQnTJysg0n4PHqEYV+NgJOjIxZ5zNMPMf73SSpcX8Z6/02mqQsX0zITfvslzP5LUK7bsBEzZs1Bn149sMRjPtq2aYlfx03AP+rCIjLS9vG/T0bPHl2xbdNa/PDd17ipwvmR2hdx6fJl3LhxE4MGfI4VSzww4pvhWL5ilR7kJmS/xv72u26LtEn2Sd4jaauJtE2CNWPGDBg/doxeT/26dfDLuPF48PChsRQR0RvmQSrBas1wtSROBzk5OToZv1kmJ/k1qkqUaqlRg3r6JJtDVb19evbAgQOHcO78BWNJoISq/BrWr6uXKVWyJPLnz4esWbKgVs3qYaZJtWquapVKqFO7pl4mV86cOogOHT6KK1evGUsAqVKlQv9+fVDsg6L696SquuvRrQuqVq6kXyePCuXL6qpQRkRHJvx6njx5qvZvnQ4vl1w5dfWWL28eNG/WBLt279Eh8veef3QAStWaPFky/WjW9GO9ndt3bhtrts3+P/T2xrIVq9G1i5tus1SNFcqXQ5fOHbFg4RI9etgSeW2J4sVQQG0vceLEuqqXdWRQ+yHkFoCEr7yXss48uXOjZIliOH8h5P28fuOGuog6rdsibZK2SRulrSZyYdZaVfEfN2yAtGmd9XqkirZLaId79+4bSxERxZ04CdiECRPALpEdbt1+ExCWSDfhrVu3VcCWDO06FHJCzZ3bRZ2IbxpTgHz58oYuI0Wx3Mt1cckVYdqrV6/0c5PixYqFqaIzZsgAZ+c0odWWyJPHBalTpzKehZDwlyCRqmvNuvW6K1aqzcDAF8YSEYVfz/3793V3qQSZrMf0ePjQG15376pK3w8XL3rqMJZqzjRfupqfPH0KH583YW6L/ffx9oG9Ckhptzm5CJABaLK/lhQrWkR3EU+e6o7jJ05aDGLpopePZu3Z+w9mzZmn9u+k7uIW9+7dUxcHmZElcyb9XEgbJZjNSfV++46XPiZbtm7HnHl/4uatW+rvJtBYgojojfBdxKZK1jTN2uIkYJOpKswlVy4dHqauWEtevw6Cf0CA7kq1JHxYWIPc75MQlHubkZFwGDB4GGbMnKNDMEP6DChYoAASq9e+jZeq/ZY+hyoVXds2rXQ4vrDQjsSJ7fW9a6l6rc18/6V9QcFBelp4r1W4BQVZfu9y5swB96mTUKhQAaxctQbNW7nih5GjQ7vP5f5rB7duOHfuvN6XwoUK6WA3CVAXVvZJ7FWohv3ztLN70w7pRpau6u9/HKXvUadOnRpFixbWFT4RUXjhw1W6hc27i20RsnESsNJtKANeduzarQfYWCLVTNKkSZBZVTGyjNlYLDzz9VWVym3dxfiurly5avwWwltVk1dVZero6GhMiUgqV+miHTignx60VK5saRRQFeTbcnJy0hcb2bNl0+swf8g93aRJk+oBQLLvpUuViLCMk1PkbYypqPZf2vf61Wt4ed015obw8rqHJOqix9ls9Hd40mVbs3o1fPftV1i+2EPfJz569JgO7t2796Bje1e0a9ta74fsm/m+SNhKz4VcyJgzb6tU+GfOnsPggV+gdq0aej1S4coxIyIKb/nqDWHC1VTBmoesLGNNcXYPVk6Icv9s4ODhuqKRbkTp8rt3/z6mz5yNIcO/ga/vc9SrUxvrN2zCqdNndNBI5SIjftOldVaVXtiuy9hYtmJVaMhLd608z5Ytq+5ejYxUeFLdmYJHurJlsJK0923IvdUPK5TD7Dnz4aMCSMgxkH2VLlYhFyLyuwzokXnCV11gyPbCB1BsRLX/0r6PKlbAAo/Foe2T+5tz5s1HjepVkTJlSh1o0p0r98RNFap0/V6/fiP0oijgRYC6YPJTFxPJ9cVVunTp9GAreS+FjCSWe84metsZM2Dh4qW6TULaKG0zSaW2LbcZpEtYtiM9IX/t2IULFz2NJYiI3qhYoQzyuOSMMKDJFLIyT5axpjgLWOn+7NqlE/r07gH36bNRtWZdlKlQGU2at1YV1HUMGzxAVzUy+MWtY3sM/fIb1GvUFDXqNMDNm7f1R2Ws8TnZzm7t9SjZug2boHrt+vqE3f/zPlF2NebMkQOd2rfVFwetXDuiS7eeyJY1K9I4v91HnOQYdGjnGjKwqWVb3YYqNepimvvM0H2T7tavvxyq7/FWrFJTL9OspSsePHgY+lGadxHV/kv72rq2Rvr06dBYvS/1P26G1m07okrlSnrQlenebcMG9XD/wQNUqloLCxct1R/FkY/u1GnQGK4dOqOtekilX7xYUf0a1zYt9X3nhk2aw7W9m/4IkwwSM5FtSxukLdImaZu0UdpqIn8bfXt9hvETJqNF63Zo79ZVX4BI5U9EFF7xooXQq1vHMOFqItNknixjTXHyOVhL5POU0n0owSKDccKTZkqFKN3GUgW9K9PnQPv27olSJYuHfpfu23QxygldKrMUKZJbbPPbkHVJZSpdxpHtn7Tx5ctX6hilCA03a4lu/6VClI9XRbavpmORPHlIMAu5vyyDoSJ7T2NyzKNbRv4u5D64zDdtl4goLsSLz8FaIidIGS0bWVBJoKRM6WCVcLVEth/Vid4Saau06V3DVcg6ZP+j2j9pn2zP2uEqott/Ca+o9tV0LMxDTvYlqvc0Jsc8umXkWKRIkYLhSkTxTrwJ2H+bfFRIBlAlSWJ5hDIREdG7iDddxERERO+zeNtFTERE9F/CgCUiIrIBBiwREZENMGCJiIhsgAFLRERkAwxYIiIiG2DAEhER2QADloiIyAYYsERERDbAgCUiIrIBBiwREZENRPguYiIiIood8+8i5pf9ExERWQG/7J+IiOhfwIAlIiKyAQYsERGRDTBgiYiIbIABS0REZAMMWCIiIhtgwBIREdkAA5aIiMgGGLBEREQ2wIAlIiKyAQYsERGRDTBgiYiIbCDOA1b+r4FHjx7jyNHjOHDwMC5fuYqXL18ac4GgoCA8ffo0zLT45t9ooxynZ898ERAQYEwhIqL4LE4D9smTJ/j+x9Fo2KQFxvz6GyZPc8cXAwajQePmWLtuA16/fq2C6xn6fD4QJ0+dMV4V//wbbXzx4gVG/zIWm7duN6YQEVFMHT91FpPd5+LuvQfGlDdkmsyTZawpzgJWKr7hX3+ng2PtyiVY7DEX82a5Y9XyxRg7ZhTOX/SEv7+/sTQREVHs7d13CJeuXMNcj6VhQlZ+l2kyT5axpjgL2B27/sajx4/Rr09PpElj9v/nJUyIokUKY1D/fnBwcDCmEhERxV7zxvWRMUO60ECVn+a/yzxZxpriJGADAwNx9Ogx1KhWBenTpzOmRk3uPc6ZtwAfN/1EP+R3qX6F3J+8fPkKxo2fiOat2qJ2/Y/x1bffw+vuXT1fbNu+Q88/dvwE+vUfjG+/+1GvMzDwpe6ObtexC+o2bILfJkzCyVOnMeyrb3Hz1i3j1dDrGjlqjF5367Yd9WvkteaiaqPw9w/Aug2b0LvfAFSv3UBvU55LV7iJeXtkmaFffoPzFy7qfQzvytVrel3b/tqh7wMTEZFlEqAdXT8JE7Lm4WqaZ01xErB+fv64dv0GcuTIjgQJEhhTozZj1hxkypQBc2a5Y8Q3X2LN2nXYuftvPe/ly1fYqgK0ZMnimD5tEhYtmItCBQvoQPUzupmf+/lh67a/sGjJMnTu1B4DvuiLxIkTw2PhYixdsQqDBnyORX/ORdUqlTB5qjsuel7Cq1ev9GuvXbuOAYOGoVy5Mli/ejmmTpqAc+cv6NeaB9809xnqDUqv2zjht190mE+cPC00QC9dvowbN27qba1Y4qH2YziWq23L4C4hy82aM08F5k58NXyIXqZZk4/V/EMRAtTz0mV89c13aNSwnrpQqaorfyIiilz4kLVluIo4PSs7OToZv0WvTu2aqF2zBtI4OaFkieJo2KAezp27oAPO3j4xenTrgqqVK+n58qhQviweP36iRyibpEqVCv379UGxD4rq3719fLBj124M+DxkmqNjapQoXgzt27YODVdZv1SZNapX1UEmoezk5AjX1i1x6swZvQ0TCWdpp2w/V86c6N2zOw4dPqorTSFd3z17dEWO7Nn0tvLkzq32pZiqUC/o+bLcjp279esK5M+nlylbpjQ6tm8LOzs7vYw4feasrsC7de2sj0lML1KIiOjfEycBmzBhAtglssOt27eNKdHLmydPmCBxdnbGg4cPQ7tgpfqTgJJqcM269Vi8dDl8Hj1CYOCbLto8eVyQOnUq4xnwyOeRDsxMmTIaU0JkyZJZLZda/y4Dra6q9SZNmhQHDx3R65fHBU9PfQ/58ZM3AV68WLEwbcyYIYNqZxoV8o+MKSGDu+QjSXv2/qOr1WPHT+L58+d63r179/Ty8rrIyOtGfP8T+vTqgSqVPmK4EhHFkKlr2FS5mipZ0zRri5OATZYsGVxy5cLFi55h7j/GloTWgMHDMGPmHPj5+SFD+gwoWKAAEidKZCwRe69fB8HfwmdPHVI4oFePbkifLvJuhURq+xLocs9ZbN+xEx3cuqnK+7wKdnsULlQoTJgGqIuFZCrI7ewif1vkPq9U10+fPTOmEBFRdMKHq3QLh78na+2QjZOAlaqxetUquntW7iVaYqrqYkIqV+kKHjigH6pVrYxyZUujQL68xtzIpVHVYuDLlzrozcn9Vx9vH/170qRJkDlzJtirQJT1mj9KlSyBFClS6OXElStXjd9CeHt76+rX0dFRh+zu3XvQsb0r2rVtrV9fulQJ3d1ski1LFtx/8AA+qrKOTM0a1fHj999g5qy5WLt+Awc3ERHFwPLVG8KEq6mCNQ9ZWcaa4uwerATMxw0bYODg4bqyk28pkrC4d/8+ps+cjSHDvwlz/zQqUiW+VFWdl1fIqGHpNl6/cTN8faMO6bTOzmjRrLH+kgtpg2x789Zt8Fi4BElUsAq5GKhXpzZWrl6jRxebBjVJ9/QGtQ3zkcTLVqwKvWCQEcPyPFu2rHBxyaXXk05Vu5cuXwl9zVlVye5SoWsig75y53bBvD89Qi8wfHx8sPvvvWEGUxUpXAijf/oBCzyWYPmK1VbpBSAi+i+rWKEM8rjkjDCgyRSyMk+WsaY4C1gZtNO1Syf06d0D7tNno2rNuihToTKaNG+tqr7rGDZ4QJjqLio5c+RAp/ZtdVi3cu2ILt16IlvWrLpCjYrcv2xYvx6GDx2E1WvW64/mPHzojcEDvwhTmcpAJLnnOXLUL6heq77++Ez3z/ogSIWeeXduZ7f2erSzfNyneu36+mM+/T/vg+TJkultubZpiYeqqm3YpDlc27vpjw7JYCwTuc/7Rd9e+tjINkqV+wjtOn2qu4PDV6ouuXJi3K+j9QXBnx6LwgQ9ERGFVbxoIfTq1jFMuJrINJkny1hTAlUZhZZGXvd9kCl91KFkKyGfSQ3UXy4R24+cSAg9f+6nwjH5O31s5cKFi/hl3AT89OOICPdY5R6vSJ48uf5pieyLkMC0JLr5Qr7XOCDghToeKTiQiYjoPRA+Q+Osgg1PwkY+OvMuwSivTZky5gEt1xbyuVj5aIx0UQvp+p073wOFCxWEs9k3TJlIsEYVrkL2JarwjG6+kC5l2ReGKxHR+yneBGxckPCqVPFD/LNvP5q3ctVdsi1bt9cflZEvozD/7CkREdHbiDddxERERO+zeNtFTERE9F/CgCUiIrIBBiwREZENMGCJiIhsgAFLRERkAwxYIiIiG2DAEhER2QADloiIyAYYsERERDbAgCUiIrIBBiwREZENRPguYiIiIood8+8i5pf9ExERWQG/7J+IiOhfwIAlIiKyAQYsERGRDTBgiYiIbIABS0REZAMMWCIiIhtgwBIREdkAA5aIiMgGGLBEREQ2wIAlIiKyAQYsERGRDTBgiYiIbCDOA1b+r4FHjx7jyNHjOHDwMC5fuYqXL18ac+ltBQQE4OnTp3j9+rUxxbr8/Pz0g4iIohanAfvkyRN8/+NoNGzSAmN+/Q2Tp7njiwGD0aBxc6xdt8FmIfFftnnrdri274wbN28aU6xr5uy5+kFE9D45fuosJrvPxd17D4wpb8g0mSfLWFOcBaxUWcO//g4vXrzA2pVLsNhjLubNcseq5YsxdswonL/oCX9/f2Npiqk6tWrAY/4sZM+WzZhCRER79x3CpSvXMNdjaZiQld9lmsyTZawpzgJ2x66/8ejxY/Tr0xNp0pj9/3kJE6JokcIY1L8fHBwcjKkUU0mTJkWqVKlgZ2dnTCEiouaN6yNjhnShgSo/zX+XebKMNcXJf7geGBiIkaPGIHv2bOjcqQMSJEhgzLHs9u07mOo+A4ePHEVaZ2fUr1cHzZs2RpIkSfS6Jk35AwUL5Mfz58/hsWgJ7O3t0cWtIz6q+CEWL12OFStXIXny5HpazRrV9Pakgh41Zqxez0XPS1i2fCUSqHBv1KA+2rRqodcttm3fgZOnTqNa1cqYM28BHFOnwtDBA3DnjhdWr12vrnj249mzZyhbpjR6fdYNmTJm1K+zxOvuXcyaPQ+7/t6DNE5OaNumFerUrqXamxg7d/+NrVu344t+fZA2rbNe3k9V8JMmT0OunDnRvFlj/LVjl25LjepVscBjMY6fPIlCBQuge9cuev/F6TNnsWDhYgxTbZSgtdT+YUMGwufRI6xbvxG7/96LO1538UHRwmHWI6S9sv19Bw4hb57c6vh1wH71u7xdfXp9pu+fX7ly9a2PAxFRXAgfqKZp8ntH109Cp8VWvPgP1/38/HHt+g3kyJE92nCVQU+Dhn6J0qVKwmP+bIz8YQROnDyFKX9M1/dog4KC4O3jg/kei5BYBesM9yno3bM7pqr5X337nTpg6TFnlnvotEuXr+j1BgUF65CcMHGKDjt53a8/j8Sx4ycwUYWK6f7vcz8/bN32FxYtWaYuBtpjwBd9dRBvVcFVsmRxTJ82CYsWzNVBN278RB2Klly7dh0DBg1DuXJlsH71ckydNAHnzl+AhwpDCapK6mIgW7ZsattT9Tpk+/Pme+iLhgYN6urK3tSWFStXo5faH9lu1SqV8eXXI3D+wkW9nRcvAvV+yf4JS+1PnDixDtaMGTNg/NgxWLHEA/Xr1sEv48bjwcOH+nW3bt3GFwOG6HBf4jEP333zJQ4cPIQt6iLA5OXLV299HIiI4op5kEqwWjNcLYnTQU5Ojk7Gb5ZJyKxR1VGZ0qVUZVlPB2EOVfX26dkDB1QlJQFlUqLYB2hYv65eplTJksifPx+yZsmCWjWrh5km1aq5qlUqqSqypl5GwkSC+NDho7hy9ZqxBHQl2F9VlsU+KKp/T6qq2x7duqBq5Ur6dfKoUL4sHj9+okdEhycBum7DJl151qhWVQeck5MjXFu3xKkzZ/TrpEu3Q3tXHVqrV6/Tyx8/cVJXismTJTPWBCRLlhRdu7jp4yDbleNS6aOK2LhpS6SDwsK3X7bVumULfNywga6WHR1T68rTLqEd7t27r1+zb/9BFfhZ4eraSi8jYdyxfVtkzZpFzxdSeb/NcSAi+n8SJwGbMGEC2CWyw63bt40plskAKKmkypQuGeaeopzwc+d2wfUbb0bK5suXN3QZKYql4nNxyRVh2qtXr/Rzk+LFioWpojNmyABn5zQqIB4ZU4A8eVyQOnUq41kICTMJYflo0Zp163VXtHS7Bga+MJZ4QwZrXVXLyv3Rg4eO6NfI44Knp74P/fhJSBhJkHbp3BFLl6/A3Hl/YtCAz0O7i00KqgrRfJrsX9GihXH/wQO1bcsfb7LUfqn8b6tKV9ohVekctb2bt27pClj27dr16yhZvHiYcE+ZMiUKqIsUc29zHIiI4lL4LmJTJWuaZm1xErDJ1EnbJVcuXLzoGWnVJV6/DoJ/QIC+p2pJ+LC0hkSJEukwknu7kZH7twMGD8OMmXP0Z0IzpM+AggUKILF6rSWm/QjPIYUDevXohvTp3q1rIpUKvkAVjMHBQcaUqEkQ/zpuAr7/cZT+qFTq1Kl1SJvCVML3hdr/pElD7kObyIWInd2bP5m3PQ5ERHElfLhKt7B5d7EtQjZOAla6SKtXrYIdu3bD89JlY2pYcu9RTvCZM2fSy5iNxcIzX19Vbd3W3aTvSgbpmPP29tbVpqOjozElIqnYpAt04IB+evBQubKlUUBV0JEx7Yd9Ynu9rPmjVMkSSJEihV7u4UNv/PzLWHzSvBk6dmiHX8aO19PM3VBVu+y/iRyXU6fPwCmNkz6uMSGDl86cPYfBA79A7Vo1dDtk5LZU2ELWkzlTRl1hm18AyX3VGzdvGc/e/jgQEcWV5as3hAlXUwVrHrKyjDXF2T1YORnLPcCBg4dj+46dePbMV1dO9+7fx/SZszFk+Dfw9X2OenVqY/2GTTpEJEyk+pIRv+nSOiNPbhdjbbG3bMWq0JD39w/Qz+Xeo3QvR0Yq3JeqevbyuqufS1f2+o2bdXstkcCS/Vi5eo0e0Wu6WJABRRvU62SfJMhkIJKMvm3cuKG+n1y82Aehg55MJNSWr1itX2MK1w2btugLlpgGrFS80kUvXcKyDtm2jFC+cNHTWAL6vu7Bg4f1YCh5X+Qhg6VkFLHJ2x4HIqK4UrFCGeRxyRlhQJMpZGWeLGNNcRawcu+wa5dO6NO7B9ynz0bVmnVRpkJlNGneWlWQ1/XHTGQgUMkSxeDWsT2GfvkN6jVqihp1GuDmzdv6ozLW+JxsZ7f2mDFrDuo2bILqtevr0On/eZ8w9x7Dy5kjBzq1b6svDlq5dkSXbj2RLWtWpHGO/CNOsh99evXAyFG/oHqt+mpbDdD9sz4IUgEnt4DXrt+oP2JjGtQkx8c06ElGE5sqySqVPtIDjpq0aKWPx8Ahw3Vb5IIlpuS49lXbGT9hMlq0bof2bl11gMoIYBO5eJF7wDLKumbdRvr4+KrKuWnjRsYSsTsORERxoXjRQujVrWOYcDWRaTJPlrGmOPkcrCXyHbpy31NCUwYjhSfNlMpIultjWqlFRUa69us/CH1790SpksX19oWpmzQmJJSeP/dDihTJLbY5Mqbv8pXP5r4N+bzpwUOH8fXwIfq+dGy2bU6OqbRF9tk0GCy8mCwT2+NARPRfEi8+B2uJnMDlIySRnaBlgE3KlA5WCVdLZPtvE65C2iptettQkWB923ANL7bbNifHVO7/RhacIibLWKMtRET/Nf+3Z0T5qJAMPEqSxPII5fgohQpl5zRpGGRERO+BeNNFTERE9D6Lt13ERERE/yUMWCIiIhtgwBIREdkAA5aIiMgGGLBEREQ2wIAlIiKyAQYsERGRDTBgiYiIbIABS0REZAMMWCIiIhtgwBIREdlAhO8iJiIiotgx/y5iftk/ERGRFfDL/omIiP4FDFgiIiIbYMASERHZAAOWiIjIBhiwRERENsCAJSIisgEGLBERkQ0wYImIiGyAAUtERGQDDFgiIiIbYMASERHZAAOWiIjIBuIsYP38/PD48ZMIj5cvXxpLxJ78/wXPnvkiICBAP5efT58+xevXr/VzS8K/xppkn2T7QUFBxpT3mzWPlaxD1mX2f04QEf0nxFnAzpw9Fy1d26Nv/0Ghjy7de6J2vY+xYtWaKMMwOi9evMDoX8Zi89bt+rn8dG3fGTdu3tTPLQn/Gms6eeoM+nw+UIXsM2PK+82ax0rWIeuSdRIR2crxU2cx2X0u7t57YEx5Q6bJPFnGmuK0i7hRg3qYN8s99LFs0Z8YP3YMFi1eirPnzhtLvbs6tWrAY/4sZM+WzZhCRET/T/buO4RLV65hrsfSMCErv8s0mSfLWFO8ugebIEECFClSCGVKl8Lp09a7kkiaNClSpUoFOzs7YwoREf0/ad64PjJmSBcaqPLT/HeZJ8tYU7wb5JQwYUIkTpwY/gH++rl0FW/eug1un/ZA9doN8OXXI3D79h09z+Tc+Qvo138wqtSoi8FDv8L5CxeNOSFOnzmLYV99q++DmkT3GhEY+BJr121Au45dULdhE72OCxc9jbmWSVfnnHkL8HHTT9DskzbwWLQkwr1Kud948NBh9OrbX29f2nHm7LlI70Oa2i9tlP3v9llvfb9aeN29i5GjxqB2/Y/Rum1H3V5pt0l0x2/b9h0YN36ibk/3nn31fk6cPFXfI9+3/4B+Xeg0/5D3xOTVq1dYt2GT3q5s/7cJk/DkSUi7TGRbX337vV6HHEc5HtF1B5vvU/NWbTHVfQZ8fHyMudC/y7bkGJvmh98uEZE5CdCOrp+ECVnzcDXNs6Z4F7Bycj1y9BgK5M+vw2HWnHnYtWsPRo/8HpvXr0LjjxtixA8/4dat23r5U6fPYNCQL1GtamWsXLYQvXp2x8pVa3D06HE9X7x4EYg7d7wQFBQSYDF5jWnb2/7aiR+++xoe82ejSqWP8LUKiwsWwlhIsI397XccO34CE377BTPcpyCNkxOmqQAwt37jZrjPmI0BX/TFX1vWo9dn3TBh4mQdpJZI+/fvP4hJU/5Ag/r18PNPPyJlSgdcu3YdAwYNQ7lyZbB+9XJMnTRBXzh4LFyswzomx++5CtKt2/7C33v+wTdfDcMfUybq4/PlN9/h8JGjGPXjd6HT1q/fpF9jsnDRUh1skyaMw+wZf+gLie9Hjoavr6+ef/nKVQwa+iVKlyqpj9/IH0bgxMlTmPLHdN02S+Qi6KfRv6BgwQJYs2IJ5qj1Zs6UKfTC5uFDbwz/+jukdHDArOnTMFlt2++5H0aNGRu6XSIiS8KHrC3DVcRpwB47flKFz8zQx6iff0Xb9p1R7IOiKFmimB6UtO/AQfTs0RUZMqTXla10H5dXgXLk2HF9kpYKrEb1qvp+roRZjuzZ0LWLG5IlS2psJayYvubK1WvYsXM3eqvwzZUzp16uTu2a+rF0xSqLo52v37ihAuR0hNdUrVLJWAJ49Ogx1qxdhz69esAlV07dbZ0vbx40b9YEu3bvibSKTZQoET7r/ik+rFAOTk6OutKX6lH2o0a1qvrYyHTX1i1x6swZXeFGd/xM5HXt27VBlsyZ9LGoV6e2DrLWrdQfXcYModNOq/UGBgYarwI+KFoYnzRvhrRpnfVrP+3SCQ/U62RQlxznNWvX6+2ZH+c+PXvgwIFD+kLAEm9Vnb569RofVaygu/blQqJxowaoUL6cni/viUxzdW2ltyvt66q2K/u7/6B1758QEb2LeFPBOjik0EHk8WdIZScnV+leTJwoMa5dv44DBw/rx8FDR/THOm6oMJOuRqnEypQuGeb+qrOzM/Lnz2c8Cyumr7l37x6yZsmsg8NE7hEXL1ZMhe9V+IfrLhWRvaZokcLGM+D+/fvqtQF46O0duk/ykECT6j2y7tPMap1ZMmc2nkFv/6q6CJDjJMfEtJ4Lnp549PgxHj95HO3xM8mlgj5VypTGM/VHoY5LdhWGUiWayLRXKjTNP2pUrNgHsLdPbDwDHFOn1hcLchwiO84Sirlzu6iLEcsjujNlzKgvBkaO+gW7/t6De+p4mbYpoS37UrJ4cSRPlkxPE3J/vXChAvD0vGRMISKKyNQ1bKpcTZWsaZq1xWnAlij+AXp066If7Vxb6ypFTrASSiIgkrCR5erXraNOuEHwDwhQJ3l7Y04IeblUeJbE9DWybfsk9mp6xPW8VhWWqbvZXGSvsbNLZPwGvHz1ymL1myd3brRt00pXmTFh2o/wHFI4oFePbkifLl20x8/apMp2SJECAQEvIj3OJnL/1hK5YBg+ZBA6tndVlfBp9PtikL7HKz0KErQvVAWdNGkSY+mwIlsnEVH4cJVu4fD3ZK0dsnEasNHJmCGDCqSXurIsV7Z0mIdUQXKilcrO89LlMF2rz3ylQrNcIcX0NbJtqcDMB0aJK1euImeO7Eie/E0FZRLVa0ycnJyQTFVf8pGh8PtUqGCBMNVeVEz7YZ/YPsJ6SpUsgRQq6KI7fu9K9sv8XuqzZ8/0QKx06dNGeZxvqmMk3cWRkaq4ZIniujt54Z9z9H3j5StW6QugzJky6irdfLsy+OrGzVtwcXn3fSKi/6blqzeECVdTBWsesrKMNcXrgM2jQkCCaIHHYt2tKuTEKqNbZdCLVHvVq1bRX0whg3DkRC4DjZavWK0rHkti+hrZtoTQwsVLQ7ctYbFo6TLUqlndYmXm4pJL3xMM/5plKhxMMmZIr++jzp4zP3RkrFRm0pZDh4/o5zEh+yH3RVeuXqMrPVOIPXj4EBs2btb7FN3xe1dbtm7Xo49Nx3DTlm067OQeuql96zdsCnOcly1fiXRpnXXbhAStDO4yjWyWbnLpyjYFqBwbuW8tFyUSsPLenTx5Grv/3qvnyUPacffuPZRWFxZERJZUrFAGeVxyRhjQZApZmSfLWFO8DljpLvyiby/d9Ve9dn3U/7gZqtash7XrNiJVqpB7hlKNdWrfFgOHDEe9Rk3RpEUrHXIy4jcyMXmNbLtv789w//4D/XER+ZhJv/6D0O1TNxWQ5Y2lwpL7gv0/76MqtFu6vfKaGbPmoLNbe2MJ6S62Q4d2riEDm1q21cvIR3VkkJeD2T3PmJCBYDJYSu5XVq9VX38Mp/tnfRCkwszOLmGMjt+7kIFR+/YfRJ0GjVFHHSMJumGDB6gATavnS/vcOrbH0C+/0ce5Rp0GuHnzNoaqZUz7WkBV11UrV4Jrh856RLQE5va/duh9kWkNGjfXI8Bd27TUtw5y5syBwQO/0MerZt1GqKGW27R5K0Z886W+d0tEZEnxooXQq1vHMOFqItNknixjTQlUZRHaf+d13weZ0qcxnsUvUtE8f/5cd31a6kaVE/Pz535qfvJI77+GF9PXyD1Tua8oA7FM94ejY/rsq4RcZGT78tESqc5ieu81MvK5VZE8eXL9M7zojt+7kOMjj8i2LX9ivr7PdbdxZPsp7Zf3wHS8YnJswr+GiCguhc/Q9yZgiYiI4rPwGRqvu4iJiIjeVwxYIiIiG2DAEhER2QADloiIyAYYsERERDbAgCUiIrIBBiwREZENMGCJiIhsgAFLRERkAwxYIiIiG2DAEhER2QADloiIyAYYsERERDYQ4X/TISIiotjhf1dHRERkZfzv6oiIiP4FDFgiIiIbYMASERHZAAOWiIjIBhiwRERENsCAJSIisgEGLBERkQ0wYImIiGyAAUtERGQDDFgiIiIbYMASERHZAAOWiIjIBuI8YOX/Gnj06DGOHD2OAwcP4/KVq3j58qUxl+IbeW+ePn2KoKAgYwoREVkSp/+bzpMnTzD+9ynYsm07smbJgiRJk+Dxo0cIePECfXr2QP16dWBnZ2cs/d/n5+enfyZPnlz/jI/kQuj3SVMwYdwvcHRMbUwlIorfjp86i737DqF54/rImCGdMTXE3XsPsHz1BlSsUAbFixYypr69ePO/6UgVNPzr7/BChenalUuw2GMu5s1yx6rlizF2zCicv+gJf39/Y+n/DzNnz9UPIiKyLgnXS1euYa7HUh2oJvK7TJN5sow1xVnA7tj1Nx49fox+fXoiTRqzxE+YEEWLFMag/v3g4OBgTCUiIoo9U+VqClT5af67zJNlrClOuogDAwMxctQYZM+eDZ07dUCCBAmMOZbdvn0HU91n4PCRo0jr7Ky7jps3bYwkSZLodU2a8gcKFsiP58+fw2PREtjb26OLW0d8VPFDLF66HCtWrtLdrjKtZo1qentSQY8aM1av56LnJSxbvhIJVLg3alAfbVq10OsW27bvwMlTp1GtamXMmbcAjqlTYejgAbhzxwur165XVzz78ezZM5QtUxq9PuuGTBkz6teF5+8fgO07dmLT5q04e+48MmfKiNatPkG9OrVwx8sLP//ym2qHp142o1pHqpQpMWTQF3jy5CkWLFyMju3bYv6fHnjw8CHGjBoJP38/rFu/Ebv/3qtefxcfFC2M7l276OMg5G09dPgI5s73wOkzZ5E3T260aN4U1atWUccncZTtMXXLS+/CwsXL9PFLlCiRfn2O7NnhPmNWaBextD2qdhARxRfhA9U0TX7v6PpJhK7jtxU+Q+MkYB8/foJ+/Qehfbs2qFm9mjHVMhn09PW336PlJ81RuVJFFWa+mDLNXYVQBvTt9ZkedPPDTz/j6rXraKWWqfTRhzh79hzGjZ+IXLlyolaN6ihbtnTotJ9H/ajDxtQGGazTtk0rvYzpnnC2rFnwRb/eOmgkRKf9MQMffFAErq1bIlfOHLBX4Ttn7p8oUCCfCpQiup0SVMeOn8B3336F5MmS6WnmTp0+g7/3/IMG9esidapUeOj9UF1k/IKuXdxQTm1bLg7+mDFbL9u1cydVySdAihQpcPzEKQwcPAyFCxfS25fgSpnSActWyEVDMnxYvrwOv4OHDmPR0mX4+acfkC5tWr29UT//ii+HDUa+vHnU9rx1EH7csAEyZEgfZXs+rFBOXbi8xK/jxuPe/Qf4vG9PpE6dGgcPHtZhL70MErCp1cWGXMBE1Q4iovjEPGSFtcJVxJt7sMLJ0cn4zbLXr19jjQq4MqVLqcqyHtI4OakKKpseAHXgwCGcO3/BWBIoUewDNFRhIcuUKlkS+fPn0wOnatWsHmaaVKvmqlaphDq1a+plcuXMid49u6vK7yiuXL1mLAGkUgHUv18fFPugqP49qQrYHt26oGrlSvp18qhQvqwObRkRbYl0e/fs0VW3Xyq/PLlzo2SJYjh/4YIO8pD12uuHzJfnpkpSguuz7p/q4HNyctTPW7dsocMybVpnvbxU0HYJ7XDv3n39Gml/ieLFUEDtc+LEiXVlLeEp4Sqiao+4fuMGTpw8rY+HHBfZRzlOcrxMpCcgunYQEf2/ipOAlerMLpEdbt2+bUyxTLoob926rQK2ZJjRxHIyz53bRYXATWMKkC9f3tBlpMdZqiwXl1wRpr169Uo/NylerFiYLuqMGTLA2TmNCspHxhQgTx4XXa2Zk/CXEJOPFq1Zt15Xcj7qNYGBL4wlIpJuaRmFu2fvP5g1Z56qeE/qyjU6mTNnQpbMmY1nIaTyvn3HS29/y9btmDPvT9y8dUsds0A9v5iqrKWLePJUd1UFn9SVf3hRtefevXvqAiWz2m4m/VzIcZJgNhddO4iI4ovwXcTyCF/RWlOcBGyyZMngkisXLl701EEVmdevg+AfEKDvqVoSPiytQapDCVO5txsZCaYBg4dhxsw5+qM1GdJnQMECBZBYvTYycr+zg1s3nDt3XlWU9ihcqJAO89gI6b6dgO9/HKW7taX7tmjRwmG6pnPmzAH3qZNQqFABrFy1Bs1bueKHkaPhZ4zMjq498lEpe1VNJ0gQ9k/Ezu7NPsakHURE8UH4cJVuYVPXsK1CNk4CVrosZbDNjl274XnpsjE1LKmkkiZNoqs3WcbsVjGe+fqqKum27t58V1euXDV+C+Ht7Y2rqjJ1dHQ0pkQklat0BQ8c0E8PfpJ7qAVUBR0ZCevdu/egY3tXtGvbWi9fulQJ3d1rTu65ykWF+b5a4nX3Ls6cPYfBA79A7Vo19PqkskyaNKmxRAjpspV73HJfePliD3j7+ODo0WMxao+ErfQeyMWEOfPjFdN2EBHFNfmcq3m4mipY85CVZawpzu7ByslY7t0NHDxcV1PShSndjffu38f0mbMxZPg38PV9jnp1amP9hk16UI4Ej1RNMuI3XVpn5MntYqwt9mSwkCnkZWStPM+WLavuXo6MVLgvVfXs5XVXP5eu7PUbN+v2WiIXFOnSpcOly1d0+4WM3N2lQs6cjKo+ePiIDi7Z18i+LUlGGEsXu3TFynLSC/DXjl24cDFkFLKQrt/r12+EhnXAiwB10eKHZMmSx6g9sv8ykGzh4qX6uAg5TnJ8TGLSDiKi+EC+RCKPS84IA5pMISvzZBlrirOAlXujXbt0Qp/ePeA+fTaq1qyLMhUqo0nz1qqCvI5hgwfoikoG3rh1bI+hX36Deo2aokadBrh587b+qIw1Pifb2a09Zsyag7oNm6B67fo6LPp/3ifKbs6cOXKgU/u2+uKglWtHdOnWE9myZkUaZ8sjsOXepWublnokb8MmzeHa3k1//EcGRpn7sEJ5lC5ZAk1btEHp8pWwcfNWY05YclxkBPX4CZPRonU7tHfrqsO4UMECxhLQH8WR0dV1GjSGa4fOaKseUm0XL1Y0Ru2R/ZfjIMdDjoscHzlOcrxMYtIOIqL4QL6hqVe3jmHC1USmybx3+RYnS+L0qxLNBQQE6K5LCU0ZjBSeNFMqROk2lgrsXZk+ptO3d0+UKllcb1+8TfemhIlUhSlSJLfYZktish1ZRtYd3VcmyjGRe8CyLvNBYObkY0zyjViRHdeYtkdEtkxM2kFE9F8Xrz6mY05OzvLRlMiCSqou+fynNcLVEtl+VCFjibRV2hTTcBUx2Y7Mj8n3Ecsxkfu2UYWaHK+ojmtM2xPVMjFpBxHR/5t4E7D/NvmokAygSpLE8ghlIiKidxFvuoiJiIjeZ/G2i5iIiOi/hAFLRERkAwxYIiIiG2DAEhER2QADloiIyAYYsERERDbAgCUiIrIBBiwREZENMGCJiIhsgAFLRERkAwxYIiIiG4jwXcREREQUO/wuYiIiIhuLUME6OaY0nhEREVFMPXr8jBUsERGRrTFgiYiIbIABS0REZAMMWCIiIhtgwBIREdkAA5aIiMgGGLBEREQ2wIAlIiKyAQYsERGRDTBgiYiIbIABS0REZAMMWCIiIhv4VwI20NcXvoHGEysLfKLW7W88ISIiiidsH7CBxzCpWSM0GvU3fI1J1nMG7g0boc7sM8ZzK3kdCF8V3IGvjedERPSvOnXmHKbPWoB79x8aU96QaTJPlonPbB6wXhtmYm3l+qi6dzE23zImWk1hdFu3FpvdChvPrcRnG0Y0/BFb+P/PExHFif0HjuLKtetYuGRFmJCV32WazJNl4jPbBuxrT2xZ4INOLQahjasPFm7zNGZYj31qBzgkM578vwr0wcVD1yPpIfDFtUOe8H7XLvrXaht7N2DhzCVYJ9tidR/Rk+s4cuUd+2lkHWe8YKM7KhYF3j2Da0+MJ0TxxMcN6yBD+rShgSo/zX+XebJMbPw0cqR+2JpNAzbw6AbMcW6J2gWAfDVbwtljA45YOHN4H12C7/p3Qp1KjdC26zeYpIL4zQk8ENe2TcXwzs1RrXZzuPX/EQsPmUpLH+wa0w2jdpien8HCrt2w8IwPjsz5Bm7N6qBas24YPucYvM0Cwff6ASwfq+a3a4SKDTvB7cs/ccRYxemF3eA2ZCaO4Bjch6jf1frcFkoXtGndIcuZ6OVDJ0bc/qSTavJrFXJ7V2Hcl93QtmE11GkXsU3wv44tU960ue+PS3DkgTEvOvb2uLZ2GJafN56bO78KX+71RUp743ls+B7AuL5TcMQ/E/J9kBfO56ei+Zfb4W3Mjlu+OL1qFU5b//7D27u+AX03XTeexNKtA5i0/hKeGU//Dc+Ozse6d2w2kbVJgLZp2SxMyJqHq2ne2xo3dix++P47/ZDfbcmGAeuDLUtWoUKLmsgkT7PWRPPyq+C+wUvPDeX5J/oOPYpSvSdh7c61mP1Te+Q8uhunjCD23TEGbnOA5j8vxI6NCzGxfwME7tiNa0Y4PXugqjOzQU7e5z2xbuwY7MvaBb/OXo5lP9VHoEd/jN1hOgP74siarQgsr+ZPXojNC8ZhWLHT6Dt8FaRlRZqMw8Rh7VEUhdFxmPr9V/VoEtIFLesOE4rikScuPjJ+V/T2R/2ILY5N8e0fy9FJXVzA9xjWbQtEhW6j8ceCtVj+2yAUPdMfw9eajoWvvlCYi6b4dcFm7Fik2lQnEFv2xvSs54DarvWxZdOxcJWPL7aoi5radUvgXfIVDuXQ//ev0KZmCZQqUwIV2vdDH/+toRclcUtdgO3dj2v/lYFuhVti9uBKcDaeEv0/Cx+y7xquUyZPxpfDh2HI0KH6Ib/LNFuxXcCeV9XriSZoXtnBmOCAqi1awnvBdlw0Cylvz9O4Vqcpars4wN5OFWPp8qLh4C6oYHT7Xju3HTmb1kepdCoi7OzhkLUEOg5ugpxq2cg4NPgMvWvmgHNqBzgXaIJu7TNh1zlT97QDqvRRYVExZL5D6jTIV60yKpw5jYuSwcnUNEd7FUj2SOIo89++C9r+434Y1qQEcqZTr5VkS10Jvb9tiQo50oSsT+1j7WrlcPrEJRWB4jpObcuBZg1KwFm2Ze+ATGXaqXXk0HNjpEANNDu/EjvNu/pubcNydEFzCXnF++ifGN6rN9zUI0wFfWYJ3OZvx66xvfFxsz9x2pgchvnx9r+BU94lkS+N8Ty81yEVfPde3dTjG8w9GpLEgSf/xMAl5rcJAnHE/ZvQ6inq9v0dss6undC21wTsuqtnYGHXoXA/YeptWBLS9tde2Ce9AdL7ID0ie80u6ox5IW0binEbrlvujo1iucArGzBuUG81vTcGjt0QZbhHuk+K117pmQnpJek79m94yTzZV7NuksDzq/Bdf2OZH1fhYui2pPfmF6zbH9KWtu06YfhCz9A2+npux6QvQ14nx2DhebO99FXHTeZ1Vu0fvyHk796Mbpd+XTcMn3IgpF1aIC6u+hED1b7IvkfohSGKx2bOmIEB/b9A3379MOK77/VDfpdpMs8WbBSw6sS5aT6gqqpSZqWT/QdN0MZ5PtYdffOP3blMLVTYrP7RTtmAfSevh6lGRb4q7RD4x0h8t3A7jpz3itHHfYrmDRtMzs7ZgRteb7o0XwfC+/oZHDl0DPs2LIH7AlURq6h7ZqUqqFQBC8EY6INrJ4+pbR7AuoUzMXf3DXWie4YXemZeVO0UiEnf/YiF247h4q3YjGDOhDotgOXb3lS9F7etQv5GldQlheKpwm1HXgz/fRJmT56E4Xl3Y5Kpqn/tjYvzt+JZq0lYs6IdioRMDSekO15Oum0/WYl8o1sipzEnvIseQ7Er72D8Mdkdf/w+GPl2TMEWFfz2hcuh6Bqz2wRP/sbyW1VQVQ5XtO3bBe+Pv8cf0+dgdnvgp/USQoXRZvpodCtWAt1+dsfs6S112y96fIvlOT9Tz9W0aZ8h59pvMdeU6ydWwT1tl5C2TR6NjiVTWq7uI1tOtXnUBF80Gz1JTZ+EX5v6YtLiSMYWRLVPat7wtTnQR9qoHr93KIyUchEj+2rqEZFtjfFC85Ehy/z6sZd6/mY0/rMHG7D2fF70/mUSFsz9DqV2zcROo1fBwbkQmn8b8rrZvzfANbkQ0HN8sUUFs7d6r2fPUu3vngOnNh3TczRTu6aFvLZPzpUY7mHs391tmHSuFn5S+yL7PrxujpA2E9mIqWvYVLmaKlnTtJj6c/589O7VE127dcPP6u/fRH6XaTJPlrE22wSsnDiXB8JrZjdUrFTN7OGKcWcCsXzJtjdhl64Gfl0xCd3yqVBeMwF9P6mGOt9sD71qti/cBQsWDELt1N7YNf9buDasA7eZZyxXHTHx2lNVPY3Q130/vNRKpGIuVUSdKIzZNuGpqpKG/eF+SAav2CNTnpIoksVU2Qt7FOkyB8sG10LKB7sx55uOqFOvG9xPvt1eOlRuivyzV4UEWKB0S9dEw5Ih8XHt5G5kygxcOCohfwwX/O1x7aJZF7T0ImQ1frcoDSr0DOky//3X8tj3zUycttg8VY3vzohMdp56O0eOeuKZ/Q3oTdmpyr2FJ5bvDokIrx3rkda4AIi+fbVQ1aiY7XPnRdHz6mIs5Gk4sv3CaF5T35hQ28yE2k0KY+1+IyQcnYFd27BFLtbUBZVzxkjK8EiWCzx3FBdzOavKNKSdR1Qj7M94WmxLVPt0UVWeOetUVsdJP1X/DtKEXAiZkW1da1AfRYweFPsP6qPhrV04YkpYdWFWu1rekOC3y4H8HxxQF2d6hnq7MsE50AsXpY2nr+OZ7IdM91UXlV5N0PAD47IiWWHUbvDmglDaXLRJzdB2ZarZVF0UqfXKE4eUyOS5G2sPqWOvrnQd1DGxeHFCZAXhw1W6hcPfk41JyC5dsgRdP+2C9h064PeJk4ypb8g0mSfLyLLWZJOAvbhyJvY1+R5r5CM04R8rvkfzE39infmAHIccKFKzCXp/NQ4LVs9BJy8ZyGR29lYhWKF+S/RXV/JrVn+PfHMmYK3ZufetnN8Nd88m6P99FzSsGHJPsVRe42RskiylCly1/WirSFWVXjV+jcLp3TNxsVE//NSlPirI9tQjnzrxhudcoBwatlHLzVqOzd/mxdyJpqojhuxLoM2nIQHmu3slLrSogXzGiTLQzxdpsxdG/nx5Qx5l2mOi+cebkjlEe7K0dwjpMpdu906l/8ROS4Oq1HHzfeyMnAWN7ajHhx3GoZuxqUzVmgLLtqkLKE9s2VQy9ALAGu0LIdu317cbTOztzV7p0hKzf6qJzN7H4DGmN7pPPBBaEYYRyXKB/s/gnC37m3bmq4/h39a0eM80un1KmSzqPZJtpTRvuzoCSZIbv2ppwj03CcRpdXHbZ/FZdcBl2zkQ5m5VcrUe41eRxP5NtEubwxwvO7lZYnCohGHT2qEoLmHnH0PRtv+q0LEQRNa2Zt3mMOFqqmDNQ1aWic7Ro0fxScuWcJ8eeTewzJNlZFlrsn7ASuXkAXRqUMm4xxnuka4SGroCc4wBOb7qSn7fXbMwDfSBt5wg1UlAXNyxARfN7ys+8VbVQmQnlhhInwmlcCakohKvfbBv2ZKQK3QTh4zImfEY1u42FtInkRwoWhPYuetY6Ahnr80zsfBEyO9RyZSpBKCqnNCTkc8BrFhk1q2owmbXBvOR04C3j6qJHO3furIOCbCpmLjWGd3qv7lwyKnCW6pJ/bEm/VDHN6YnxyeqGvU0i6HXXurCojAyWSz+1MVSRVU1XbZ/856rTYW+w6kroXmBVVj+xwYcqfvmAiD27VPHyMEHz0KH3cr2N2BX6AVaII7sPYAPTd32/oEITC3L1Ee3bweh6mFVJYbMCSuS5RzyFsELVQ0/My425BEqdSbku3s3NLCj2qecxSqpdpkNSvP1ffO7QW9r/YE3fzd3j2HniyLIF77UjcAX1847oFEDdXyzqu36e+OOMQcOeVDkxQb8E/r374Uju990EUub1+44ENqWwBP7sa9i4ZDbAYHqmNipfSxTA80HjEbvdPtxOl4MdKP/ovLlSsIlZ44IA5pMISvzZJnojBo9GvPm/2k8i5wsI8tak9UDViqn5erqXz6aExn5yE6+5SEDcuwdA7FlRPOQj8t07YQ6jX/EtWaT0O2DkGVT2l+Hu1vIR1fc5KM6n25A5u/7oWG6kPlvLV19DPg+B7b0qIOPO3dD245qe8WaoIIxO0RetPnhMySZ1ymka7veTJyWwVHdv0epY0NRp6p0dzfCKB9VdTcxXhIF5zqqKnXZBrd6zfU+tv3xOop8Us6YK1R1dm0mXOuFtEk+qtNpfSb8NKD+248m1QG2DUdKhLv/XeYzfJt2Mbp3/gbjJv6ofy6/brF2i0hVNF5rhuJjeQ/0PdhvcaraIDSy2KVsj1Ldv4Tzkt5w+3ICJv2ofn6nKp3Q+9tqft2a2LnQGw2rvbkAiH37HFChaTlsGSh/Pz9iywPZ/jhkWtIN3X+cgO96dMPctF+id5mQg+F9dCoGdu2P7ybOxLihI3HRtYnFe86RLpe1CUbU98SIrr3VvAkY3rk3Ju73DgmkrOXQBlPgqt5DGacU1T7Zf9AF32ZeDLd23+A7OUY/bsOd8Akr22rliVEdh2LcWFUxjjiDRiOahIzKj1Ia1G5fGGtH/IhJMydg1NbrZn9HmdB8RFMc+aI5Bo5V7R+0HSjz5m9R2jxR2tXjR4yTdv3pjG+7h4xCD7y1ASPU8Rw+dqZ6X/tjTvr2qB3bf4dE0ShauCC6dm4bJlxNZJrMk2XiswTBivE7vO77wMnRpncjIydfT6jOPfoq35JA+T5jVRXpYbnWEfgkUFUXUa9PvutYbTRMl6N8t7LusjSbFiOyj7IPUYxKlnUH2quqw3q7GYEqRCQzYyVQVXb20XRthlL7K/ec3/Y4xbZ9EV6nK65Ith/TjUS1XGTzLEyPzWrMBaoLFPu3HM0uYr1dee9eq2NnaX4s31ei/7pHj58hU/o3XXvxJ2CJiIjeY+ED1kYf0yEiIvr/xoAlIiKyAQYsERGRDTBgiYiIbIABS0REZAMMWCIiIhtgwBIREdkAA5aIiMgGGLBEREQ2wIAlIiKyAQYsERGRDTBgiYiIbIABS0REZAMR/jcdIiIiip0o/7s685lEREQUM+EzlF3ERERENsCAJSIisgEGLBERkQ0wYImIiGyAAUtERGQDDFgiIiIbYMASERHZAAOWiIjIBhiwRERENsCAJSIisgEGLBERkQ0wYImIiGwgzgNW/q+BR48e48jR4zhw8DAuX7mKly9fGnPjh6CgIDx9+jTetSsuybGQYyLHxhpseYxfv36t1x0QEGBMISKyvTgN2CdPnuD7H0ejYZMWGPPrb5g8zR1fDBiMBo2bY+26DfrEGB88ffoMfT4fiJOnzhhT4j9TqNjqGMqxkGMix8Ya5MKqZZsOWOCxWF90WdONmzfh2r4zNm/dbkyxDgnsZ898rd5eIrK+46fOYrL7XNy7/8CY8oZMk3myjDXFWcDKyX/419/hxYsXWLtyCRZ7zMW8We5YtXwxxo4ZhfMXPeHv728sTW9LQqW3CkD5Gd/JRcC69RtRokQx7D94CA+9vY051pE9WzZ4zJ+FOrVqGFOsQwJ79C9j9d8wEcVve/cdwqUr1zBnwbIwISu/yzSZJ8tYU5wF7I5df+PR48fo16cn0qQx+//zEiZE0SKFMah/Pzg4OBhT6b/My+suzl+4iE87d0LmTBlx9NhxY4512NnZIVWqVEiaNKkxhYj+37RoUh8ZM6TH3Xv3Q0PWFK4yTebJMtZkN0Ixfofvc3+kTJHMeGY7gYGBWLJ0OUoU/wAfVfwQCRIkMOZEFBj4EvsPHMTEydPw67gJWLVmnapsA1CwQH4kSpRIr2vCxCl4/PgJLqiq95sRP8B95mw8fOiNQgXzh55U5R7fP/sO4PsfR2Hs+Ik4fOQonNM4IXPmTHr7Xnfv4ne1nh9H/Yz1GzYhSZIkyJUzpz45BwS8wKbNW1GubBkdAOJt2nXixEl89e33WLl6LVKnTq3WkQkLFi7WbV29dr2e5pIrZ+hxkIpu6/a/MHLUGPw+aSouqv0qkD+fComUev627Tv09mTfRo8Zpx5jcVxtI2eO7EiXNi3mzl+AqX/MxPXrN3Dw0BGsVdWh9BgUL/aBbveGjZvxw8jRcJ8xG2fOnUO2rFmR1tlZr9sSqdD+9Ahp79LlK/FaHUuHFClw5Ogx1KtTO/QYR3UMo7J5y3bY29ujTu2a+jVyrCt+WAGJEyc2lgi5V3/o8FH89POv+nbC3n/2wV4tK9WprF9uN8ye9yd+UO/vwsVLceXqNeR2yaWPmez7iB9+Uv+AMiB9+nQ4feYsfvt9ErJmyYLfJkzEyNG/YKe64Mug5sk0eR+ien/9/Pz0+jZv2YrLl69g1+49en7ePLnVsUgSZlsm8p6cOHlKvwem9jiq933Ltr/0cc2XLx+cHB1VVbxNv+e//vY7tqp5so+yH3LhSUSxJ+esvLlzqkr1ug5U+SldwqZw7dS2hT4HvIsIGapOXKHu3PM2frOtR48eB3dw6xqsQsSYErmbN28Fjxs/Mfjc+Qv6dbdu3wkeOGR48JKlK/R8f3//4OFfjwhu2aZDsMeiJcEPHjwMvnTpcrBb1x7BM2bNCVbBqh+r164L7tSle/CBg4f1emR9U/+YEfzs2bPgq1evBbdp10m3RwVjsI/Po+CffxkXPHvOfP1aU3sPHzmmtyli2q427d2C1ck32NvHJ/jvPXuDm7ZoHdx/0NDgjZu2hJl20fOSft2rV6+C3WfMCh725bfBd+/e0+2RNn/avZfeppD11W3QJFhdLARfu35D7/NvEyYFd+/ZN1gFTfDz58+D1ck8uG2HzvqntE+mybpln/t+MSj4ytWrevvSjk9atws+r/bDkhcvAoNV0Ed4TbuOXfQxkXWL6I5hZNSFUPBnvT8PVhcI+rm0X57v/We/fm5y8tRpvX4Vjnr9d7y89HGSY2Rq4+Sp7sFPnz7Tx16OqxwnS++f/Kxao65+v86cPaf3SYVycPOWbUOPcVTvr7oA0u2U1wwa8qVugywj7Qq/LZPfJ03RD2FaRo6hrENV8LrNso+yD/KeyjKely7pv9nwx4KIYk8FavDocVOCPx8yQj/kd5lmDeEzNE4vi50cnYzfIpc1axZ80a+3ruAcHVMji6o4peq94OkZZsRpmdIl0bJFM6RN64zcuV3g2rolLqnqQqpPuae3bMVqdO3ihrJlSun1yPp6dOuCFOqqZp2qtmpUr4oa1arqqsnJyVG//tSZM7oCtSSm7SqhKpaG9esijZMTSpUsifxqeamSatWsHmaaCli9vNwz3acqp549uiKDuqqS9si+lS9XBkfMuk6dVPXd7dPOyJE9m97nT9S+B74MxANVuSdPnhwpUzogoars5Ke0T6ZJVbdj52707tldV5ayfaka5bF0xSqLI3iv37ihKq/TEV5TtUolY4mQ6jI2x1AcPnpUvQfJkTdvHv1cunJl/dtUBS9VpIm0vUTxYvp4y/ozZcyo3085RlJR3rx1S227it5fqajlvWjcqEGkvSNSKXdx64hCBQvofWpQr66uOO943dXzo3p/pYdB2pksWTIktk+M1KlT6WXMK+6YqFunFlp90hwZM2bQbZZbI/K+y3sq68uTOzdKliiG8xcuGK8govdJnARswoQJYJfIDrdu3zamRM3P3x+nTp/Bvv0H8KfHIuzctVsPgDIfISsnaPOuSAnvO3e8dPemj7cP5DSbI0f2kJlmZD2q+tInOOlOlY8KyUNOpHKP+PGTx8aSEcWkXfny5Q1tl5zrpavPxSVXhGmqutTPb9++g8SJEuPa9euhbZF2yWjVGyrsTHLlzKFP7CYpVIC+fvU6yjC7d++eCvfMOixMJICKFyumAuyqbnt4kb2maJEixrPYH0M5ftLdXbNGNSRXYWXyYYVyOugk3E2KFS2CQ4ePQFV4ujtcjoeJhGrJEsV197F0L9+6dTvMe2CJBLN045okTpxIXxRIN7dJTN7fd1Egf/4IFwDSfSwfWduz9x/MmjMPx46fxPPnz425RPQuwt9zDX9P1triJGDlyt8lVy59bzG6k5XcL3Nt54Y9/+zTz/PmyaOu8CMGZVReGuElJ9HwXr8Ogr+Fz0c6pHBArx7dkD6d5T55a7TLkoBIRqRWKF8O9evWMZ7FjqzbPom9OqlHfNslnIOCIn7cJLLXmF/MxPYYeqqqff+BQxj+1QiUKvdR6KNugyY6TKWKNf195FQXFO5TJ6FQoQJYuWoNmrdy1feRJQSlLVKNDhnUXwfk1yN+QMPGLXTYx5at3t+obN+xEx3cuuHcufPqb9UehQsVCnMRQESxFz5c5Z6rPGwZsnESsNKVVr1qFexQFYHnpcvG1LBMV+1/79mruyN7dO2iQ6Zc2dK6+ngbpsEmMlo1PBmUIgOd7NUJTdZt/ihVsoTuQrbEGu2yRE6oL1+91N3G4dsjXd8xZW+fBIkS2YUJTVm3VHdSJZm7cuWqHiCVPHnEAW5RvcYkNsdQun9Xr1mH7l07Y/vm9REeM92n6PA1f8+k27Rm9Wr47tuvsHyxB7x9fHD06DE9T3oBpLvXrWN7zJ4xDUMG98fiJct093FsxOT9la7toKAgRPcxWPm8rPwDjkpgYCB2796Dju1d0a5ta7290qVK6KqaiN7dslUbwoSrDGiSh3nIyjLWFCcBK+QE8nHDBhg4eLi+cpcuPzlZ3bt/H9NnzsaQ4d/ob3jKnDkzbt68hWe+IV2CcrKXbsC34ZwmDT6qWAEzZ8/Dg4cP9TQZESrblZNjvTq1sXL1Gpw8dVrfTxSynIy2lSCQ4JEAkq5CU0VljXZZkkeFqIyMlS9ckDYK2aZsW0ZJx1SqlCmRNElSHDh4SB9XechoVAlpGWVrWrdc4CxaukzfE5aRvOFJd7bcIwz/mmUrVunfhVwwRXcMw5PuX/lyiaqVK+ngDP8oVLCgbu++/Qf18tJtKqOiTesOeBGgLsL8kCxZch3+u/7eE/p5VFlGusqTJksa69G3MXl/5eLjrKo2pXtdyPtkup/8z/79er/luG/fsQsHDx7Wy0RGjmE6VenLuAHT8ZJ1ywhlInp3FSuUQR6XnBFGC5tCVubJMtYUZwEr3Xpdu3RCn9494D59NqrWrIsyFSqjSfPWuHr1OoYNHqCv3uXEnyVLZj3dtb0bpkybjkoVPzTWEjOyrQ7tXFG8WFF83LSl7oas36gpbt64pU7GQXogSZ9ePTBy1C+oXqs+qtdugO6f9UGQOlHb2SXUwdOieVN9v7Dsh1X0/TFrtMsSuY/5Rd9e+p5s9dr1Uf/jZurY1MPadRtDP6YTE3JfstunbliydIU+rp/26KUHMfXt/Rnu33+A2vU/1l2x/foP0st9WKG88cqw5N5o/8/76EFE0h55zYxZc9DZrb2xRIjojqE5CcDdKhDlIyuZjI89hWdvnxg1a1TXvRwSoPL8h59+Rp0GjeHaoTPaqke1qpX1e5pIhdOFCxdRr1EztHLtiMbNWuow7NbFTR/P2IjJ+ysf2ZGBdZ9276X/ptxnzNJB2d61NU6cOIUKlaqhYpWaKuwfo17d2sarLJN7sa5tWuoBeQ2bNNfblL+3CuXLGksQ0bsoXrQQenXraPGjODJN5sky1pRAnexCO7i87vsgU/o3X/rwb5JuNOkmky+XsFR1SDjIQ0bDvgupMvz8/HWlYWk7pi5FS9ux9FprtcsS2Z50lUsXq/k9z7chFZRUelKFm69D2iwjrB0cUkQYaBMZ03f5RhdaUR3DdyXtloFGlv5O5E/Z1/e5CrlEsQ7W8GLy/lo6lqa2SPf5244ujulxJqL4JXyGxpuAJSIiep+Fz9CIJRwRERG9MwYsERGRDTBgiYiIbIABS0REZAMMWCIiIhtgwBIREdkAA5aIiMgGGLBEREQ2wIAlIiKyAQYsERGRDTBgiYiIbIABS0REZAMMWCIiIhuI8L/pEBERUezwv6sjIiKyMv53dURERP8CBiwREZENMGCJiIhsgAFLRERkAwxYIiIiG2DAEhER2QADloiIyAYYsERERDbAgCUiIrIBBiwREZENMGCJiIhsgAFLRERkA//6l/0HBQXB19dX/QzdrEVJkyZRj6TGs/jn5cuX8Pf3h4ODAxImtN11SkBAgNrWK7WdFEiQIIExlYiI4pvwGfqvB+zTp08xasxY3L7jpZ8Hq8C9des2UqZ0gKOTk54mOrRtg5o1qhnP4p8jR4/j90lTMGHcL3B0TG1Mtb7Va9fj4KHD+Hr4kHh9wUFEFJ8dP3UWe/cdQosm9ZEhfTpjaoh79x9g2aoNqFihDIoXLWRMfXtx/r/ppEqVCqN+/A7zZrnrx/Rpk/Dhh+XRpXOn0GnyiM/hSkRE7xcJ10tXrmHOgmU6UE3kd5km82QZa+I9WCIi+s+TyjVjhvS4e+9+aMiawlWmyTxZxpribcCePnMWw776FucvXMSXX49At8964/HjJ/oe7t5/9uPT7r1Qu/7H6N1vAA4eOgKznu4wy1SpURe9+vbH/gMH9XR//wCs27BJv6567QZo17GLfv769Wvj1RG9ePECc+YtwMdNP0GzT9rAY9ESfW80PK+7dzFy1BjdrtZtO2Ltug0IDHxpzA1Luspl/w4fOarXJ+tt3qqt3o5sLyp3vLzgPmOWbrvsw+cDBuPc+QvGXGDb9h0YN34ijh0/gX79B+tjID/NlxE+Pj74bcIkvV+y7anuM/DkyRNjLhHRf4d0C3dq2yJMyJqHq8wL33X8ruJtwL54EYj9+w9i0pQ/0KB+Pfz80496oM+6DRsxY9Yc9OnVA0s85qNtm5b4ddx4/LNvv36dBK1pmW6fdsbq5Yv1ssdPnIKfnx8uXb6MGzduYtCAz7FiiQdGfDMcy1eswoGDh/Xrw5OAHPvb7zqsJvz2C2a4T0EaJydMU2Fk7tq16xgwaBjKlSuD9auXY+qkCTrQPBYuDhP+JjLI684dL0yYGLI+We+vP4/U25k4eVqkgS/r2v33XmTMmAHjx47R+1C/bh38oo7Bg4cP9TLP1X5u3fYX1q3fiP6f98HyxQuQK2cOvS0JdvHwoTeGf/0dUjo4YNb0aZg8YRz8nvvp++MyCI2I6L8mfMjaMlxFvO4iTpQoET7r/ik+rFAOTk6OePT4MZatWI2uXdxQ7IOienBRhfLl0KVzRyxYuATPnvniobd36DJly5TSyxTInw89unXRI36LFimMnj26Ikf2bHpenty5UbJEMVUph63uTK7fuIETJ0+jd8/uKqRy6jCsU7smqlapZCxhCvVNqFG9KmpUq4rEiRPr9rq2bolTZ87oyjsysh5Zn6xX1i/bOXT4KK5cvWYsEZaMJG7dsgU+btgAadM6630oW6Y07BLa4Z76YzFxSuOkLzBkP2W5T1o0Q+DLQBXC3nr+jp279cAyV9dWer4EdtcunXRb9x+07n0IIqL/R/E6YDNnzoQsmTMbzwAfbx/Yq/DKk8fFmBIiX948+iMzPo8e6WXkwyw5cmQPmWmBVHEyCnjP3n8wa848VTWexPPnz425Yd27dw9Zs2RW7chkTAkJuaJFihjPoLd9VQWijPKV7mqphuVxwdNTXxQ8fvLYWDKi4sWKhfn4TcYMGeDsnAaPHkX+GunqllHYso0tW7djzrw/cfPmLV31m0jFmjp1KuMZkCJ5crx+9VoHqFTH165fVxcWxZE8WTJjiZABaIULFYCn5yVjChHRf0f4e67m3cXmA5+s5b0a5PTy1SsEBQfpyja81yp0goJe62VE4sQRlxHbd+xEB7duOHfuvFrGXgVKIR1qkQl48QL2SexVCIY9VHZ2dsZvatuvg+Bv4Z6sQwoH9OrRDenTxbzrQfZNgjEw0PJ9WOmy/nXcBHz/4yh9vzR16tQoWrQwkid/E5TRkYB+ERiIpEmSGFPCemUcQyKi/4rw4SrdwvKwZci+VwHr5OSkqzAvr7vGlBBeXveQxN4ezmnSIL3Rjx5+GRGoQmX37j3o2N4V7dq2RrmypVG6VAndnRsZCV/5nK7p3qXJlStXjd9CvhRDqm17FdiyTvNHqZIlkCJFCmPJiMzXI7y9vXU17OhouU0ykOrM2XMYPPAL1K5VQ29Dur3f5jOy0oWdOVNGXWGb3+v1U5X4DVUJu7iE7SEgInrfyedcw99zDX9PVpaxpvcqYOUgfFSxAhZ4LNYjYIXcd5wzb76+/5kyZUodsrLMzNnzQgf9yMhhqVxlrFE6VU1eunwldHTvWVXJ7lKhGxkXl1z6/uTCxUv1eoTnpctYtmKV/l1IYNWrUxsrV6/ByVOnQwc1yfY3bNwcui1LZD2yPiHrl+fZsmXV2xVyD1VGVN++fUc/T6X20S6RHW7euqW3IwH5145duHDRU8+PqepVq+DkydN6wJRUtPKQ7ua7d++htLooICL6L5EvkcjjkjPCgCZTyMo8Wcaa3quAlW7Ztq6tdZXauHlr1P+4mf44TJXKldCsSWN9L1OW6dDOFcWLFcXHTVuiVLmPUL9RU9y8cUutIRiubVrqgVANmzSHa3s3/ZGWCuXLhmzAArlHKSNxJdCq166Pug2a6BHKnd3aG0uEkIFSMlp55KhfUL1Wff3xme6f9UGQCkE7u8gPs6xH1ifrlfXLdmR7pnujMkCrqto/1w6d9SjlJEns0bfXZxg/YTJatG6H9m5ddTgWKlhALx9TOXPm0FXwNPeZqFm3EWqo9m7avBUjvvkSGdSFDBHRf4l8Q1Ovbh0tjhaWaTLvXb7FyZJ//asSrUUqNz8/f6RIkTzS7wKOahnT51jfpms1pq+RjwOJ5MmT65+WyGCjfv0HoW/vnihVsni065Z1yj6Y5svbJtPkufn94NgIv24iInp7cf5VidYioSIfM4nqi/ajWkbC5G0DJaavkWCNKlwtiW7dsj7z+VKty73ddw1XEX7dRET07t7bgH3fJUyYQA+Mki5fIiL673lvu4iJiIjik/9MFzEREVF8xoAlIiKyAQYsERGRDTBgiYiIbIABS0REZAMMWCIiIhtgwBIREdkAA5aIiMgGGLBEREQ2wIAlIiKyAQYsERGRDUT4LmIiIiKKHfPvIuaX/RMREVkBv+yfiIjoX8CAJSIisgEGLBERkQ0wYImIiGyAAUtERGQDDFgiIiIbYMASERHZAAOWiIjIBhiwRERENsCAJSIisgEGLBERkQ0wYImIiGwgXgSs/H8Dz575IiAgwJjy73n58iWePn2KoKAgYwrg5+cXYZqtyDYOHjqChYuX4smTJ3ra8RMnccfLS/9uTbJf8oit169f6+Py+PGTMI+4eN9iwtRe+fmu5G/00aPHOHL0OA4cPIzLV67qv523IcdJ/s7N/n+N/yRL/6behbXXZ07eE2v9jRCFFy8C9qG3N3r2+Rzjxk9EYGDEk5b8w5J/BG97QouJk6fOoM/nA9X6nxlTgJmz50aYZivnL1xUJ+yDyJQxI0aNGYv1Gzdjg3o4pEhhLGE9sl/yiK0bN2+ivVtXdO/ZF337D9KPDm6fokqNuhg89Cvcvn3HWDLmbBk60t7e6n2Un+9CLny+/3E0GjZpgTG//obJ09zxxYDBaNC4Odau2xDjk/Pmrdsx+pexePHihTHlv8nSv6l3sWr1OjRu1gpnzp4zpliPvCeu7Tu/899IeO96MUvWd/zUWUx2n4t79x8YU96QaTJPlrGmeBGwO3f+DScnJ1y6cgXXb9wwpr4h/1DlH6z8w/03dHHriInjf0WqVCmNKbYjJ+dmTZugapVKGDpoABImSIBOHdupbacylohfUqdOjdE/fYd5s9z1Y83Kpdi+eR3y5c2jA1cqu7cR30NHLuyGf/2dbt/alUuw2GOu3u9Vyxdj7JhROH/RE/7+/sbSZG0PHj7E9h07Ub58WWzbvsPqlWadWjXgMX8WsmfLZkyxjne9mCXr27vvkMqYa5izYFmYkJXfZZrMk2WsKc4DVk5gu/fsQZdOHVCxQnns/ntPnHehJU+eXAdcwoS2PzxFixRGlsyZ9O+OjqlRr25tZM4U8vx94eDgALdO7VGtSmVMc58Bv/9Q4OzY9TcePX6Mfn16Ik0as//nUf1tyHs3qH8/vf9kG0ePHVf/HjLi086ddG+Pl9ddY451JE2aVP9bt7OzM6bQf1WLJvWRMUN63L13PzRkTeEq02SeLGNNdiMU43f4PvdHyhTJjGf/DrmndeXqVTRr1hhpVBW7bMUqlC9XBilUyAm5av1x9BhcvnwFx0+e1F2oV69eQxF1cps85Q88f+4HF5dcelkhy69asw6lSpbQ/2jkXqbc3/xtwiRMmuqOY8dPIEeO7EiXNq1eXv7BHjh4CPXq1Nb/2IT5OuT1X6oKZtHS5Vi5em3oQ9og86VLe/PWbfh90lT8+tvv2LrtL9gnSYLcqk2mgJZlpNv3h5GjdRvOnb+ArFmzwNk5Dbzu3o2yfcLHx0cF10yM+vkXLFu5Gj6PHiFfntyh7bVE1jv6518xcvQv+GffAWRInx63bt2GKpBRrmwZvYxcyBw6fBQ/qeWk61Pu/WbPllVvO4EsGM5jFTQ7VeBUU9W2k6OjMTWE7GtqdaJatWa9Wn9p/V7Kfu8/cBATJ0/Dr+Mm6GPq7x+AggXy6+6zET/8hM1btur3dtfuPXp+XrVfjmrdkb0uUaJExhbDkspmw6Yt+GbED3CfOVv9LT+HswrE/eq9NW+vdPfOnvcnfvhxlD7uL14EIn/+fEicOOJ6AwMDsUS97yWKf4CPKn5o8ZiYky7yMWN/08dyk9qvAFX1SmVvavMFVe3evnNHH9/Rv4zD6DFj9THPafZ+nz5zFr/9PglZs2RRfxMTsXjpMlT6qKJ6r6Taj/zvLPzr5H2X9ypD+nR6mqnt7/q3GJ5U9n96LNbHfenylXgdFKRvbxw5eiz039Tb/p2ZyIXanLl/on7dOihSuKDuHZHerMKFChpLhJD3fuv2vzBy1Bh9fGRbadI4IbO6cJX1y379PnEKfhz1s/5bkn8/uXPlRLJkyUKPW9nSpZBEHU/Tv31p9+gxlt8j+VuM7L2Q91fOF/v2H8BFz0uqXTuw/a+dKFq0MG7evBVmW0IKDPl3kDFDBqRX71Vk77+0+W3fGwpL/i7z5s6pKtXrOlDlp3QJm8K1U9sW+t/Lu4iQoeqPP9Sde97Gb/8Of3//4OFfjwhWJyP9XJ3sgr/74afgJUtX6OdClrl2/UZw2w6dg9VJOPjRo8fB6h9ZsDpB69eqfwzGkiHkuUyX1wUFBQWrP8rg1WvXBT948FC/dvOWbcFuXXsE33/wQC9/+Mix4A5uXfU8E/N1vHr1KlidlPV8eah/QMH9Bw3V65T1nzx1OnjyVHfdRpnveelScKcu3YP3/rNfr0teP/WPGcF9vxgUrE5mepkDBw8Hz5n3Z/DLly+jbZ9M796zb/D0GbP17+qCIFiFTvCQ4V8HP3v2TC8TnvqHHNzKtUOY1/w+aUpwg4+b658ma9dvDO7SrWewOnHpdqoACO7ao5feJ0vUhVBwe3Ws5Kcl3j4+we06dtHHVEg7xo2fGLrft27fCR44ZLh+f9VJUR9X2f9BQ74Mvnv3nl5GhVqUr7NE3ofZc+brtqmToX7NP/v2631r1tI1tL3Svs96f663+Vz9/chDXvfT6F/03154sh7521Anb2NK5C5dvhLcpl2nYHXxpbcjfw+Dh30VPG7CRH1shfxd1W3QJFiFkZ4vy8nyTVu01vsq5NhVrVE3uFff/vpvyMfnkX59dH9nptfJcTpz9pxet+xn85Zt9fEU7/q3GJ4cMxVqen1yjGWbGzdt0X8D5v+m3vbvzETa1rtff/13IuS9tdQeFXD638iNmzf134+6+A1WF6T6PCGvlXUsX7la/3uWafI+yN+HCP/v3/Qeff/jKH2s5VioUNPrN7UjqvdC9k+WGzN2vH7IfHku0y2da+R3mWb6N2Pp/Y/Ne0ORU4EaPHrclODPh4zQD/ldpllD+AyN0y5iuaKXq8uSJYrr5/b2iVFXXfVKl7Fc2Qm5kpTKSKrRFOoKRLpRU6Z0iLaaELJM65Yt8HHDBkib1lm/tmyZ0rBLaId76qolJmS70oVk2u6atRtUlZUHDerV1euXbsKePboiR/Zsepk8uXOr/SmG8xcu6NdfUZXujp270btndxRQlVJIG0qhY/u2urKJrn3yWtmuq2srvUzGjBnQtUsnPXpXqjNL9u0/iGyqQjB/jWxPKhUT9Y9U7cs69OnVAy7qal72U6qt5s2a6GpS/W0YS8ZcwgQJw3Sry/a+6Nc7dL+lK1wqwQuenrrqkOMqVURi9b6nTh1yjBMnThzl6ywNdHvo7Y3/tXcmcFFVexz/GTVukAuZopZEouZWbinlLqLhBqKkKCIuqInmvmDPpWdpLhVP1Bdm4srT1GeppKahqLmF9gxSwQzcxiUogyKmsHf+Z+4dZoYBBuQq2f/7+dwPd845996zzfmd//+cO3xxKA6jRw7H802byGs82rRG/36+yP4td2338JEv5Uy1r08fVBDPpaOvb29ZF9euX1NS5aVK5SrKmW2oLJ/u3I1WwjLp1eMVab1Tfxj32micOHFKWokq5cuXE+0XLOMpHaUnC0UIk2l9kfrFmFEj8JJHa1SpUlm2TWH9jCCriPYPNHyugbw39VGyiq4rbtV77YvW0H6J/51NkPd7xtVVPrObl6fcT6BS3H5GlvaevfvQvm1b036E+vXc5WZAchubc+78eXRo3xZP1a4t+4+rax2MGjlMfm+E6EOIm+g/HnIsobA+vXrI/pEfVYT1GzJimKxrqov+/frC8LsBt39Ik/EFtYU6XpQrq5MHxRfVBW3d/sVpG6Z08MAElgaTL2IPyXXXJ5ydlVCgceOGcg00IbFkdgzSDuRr1/Xy1Yp9nx+AmK1LVw25BovKyVNfIfHbb+Hfv6/FF4YmA+TqPnL0S3wUtQ5nvj6LX375RcbdvHlTut/IBWSLgvJHdZSSmionICQGKvSFbdSwAZKTLyohueR3jZOTkxxUVW7duiVdXSRO9Gz1+EEMIjTpKc6mIxqErAWQ3HzfJCRKl9mGTf/BQSGEwpIwiUl+FOW69LR06MTAWreumxJihAY+GqAIui5JTOio7si9ppZXWCO4I9ovPf0nmc6cRx4pA4dHHXD1Wv7iS1Bdkfu9VcvmFv2CBsNnn3UTQpS7Q/U5IX4UrkLpyX0oLBEpKgS5NmvVrCnPzSmonxHVxeTBvJ+R25vKT+1J3EtftAXdr3atmqY9BIRx0tlY+VT8fkbiTS5hjzYvKiHGyTZNGmjcoP6h8pKHBzZv2Sbr5Ntz5y1eGyNBri7K+9aCxTh0+AhuivxQOQviGSHQNOFToeWqnD9y5KRWpbC2uBdstX9JjmN/Z6zXXK3XZEuaByawtPZ5+MhRrPj3KrRs0w4tWreVR7uOXeU6yO7P9tzz+5U0YNEa3pvzF8i1N9oBS4NZhQpFX2emL/uatesxYXyonKmr0A7HIcEhOCe+2I89phPC19BiAKN1uPJiYHBwyFvVheWPvlTZBoOYCRvXa6yhmbk1+V1DA595Hn4X19qyBkmUBg18VVoCRUVuQBHPIYuZoPWkgMHBOPLlMfmZLP86Tz8tzwuiqNdRWe7+eVfO9M0hgSyjWNRqvVhDbTZs6BBpXVlD1rXbM89IYS5oQpCTcxdZoq/qdPa3kzmPOz0Ogxgo/xRlyI/C+pk93EtftAXdTyestDJlLO9nPskoTj8jq5Y2O1I/6OP3qmlsoGPchMlyT0FCQu7rFC2av4APVvxLTlxI7Lx7+2HV6jWyzUiUw6ZPFVZ6gJxMvT5xKgYMCpLWfHEpibYoCiU5jv2dsRZXWnOlQ0uRzftNuw/QF4g2CbRp/SI+37MTB/butji2RK/HdTFbIxcyQV9Ycg8XZvXQfWlWp0IzZHp3btqUifDq2kVuviH3Dn3pigLNlumL27tXT7mRQYU2wcTFHZFf3sGDBsj7t2zRzGQ1EU/VqiWtk/T0H5WQXArLHw0+tINSdamqUH4ui3K6uVlabERh16jQa1EkIPR6Aj3X/CAXo/kgaQ90f7IiWrVoLjssQRMocheS65ZccnRvsrLMqVixghQ/c0+hPdeZQ2UhC0MKvBl6/U05IBFqvVAfoTYyLy8d5m2mQtd07tgBscJ6Tr74nRJqCVkt5cqVlVZH8sWL8v4qGZmZuCIsW3IlqlwW1iyFq1D6bxISpFvSltgQ9vQze7iXvmgLEhWy3NXlHJVLZq9qFaef0WaxuMNHsTpyRZ6xgQ5y/5L7WLX4Ceof5EJd8s7biF6/Ri6TXFTajJaeyKNDLvvoDVHo07sntm3fUeh4Ygt728I4XlG/Lnip5ceffkRaWrryyTYlNY793dm6IybPhiY6zEWW0pQkD0RgyV109NhxuV5D1iCtKZgfZE3Qmgm5goyzUOMAdijusPxS0YBM600kdrTblAY56si0NrNPCLfK405O0sV35epVGU/3onuqwk3QrJdcj7SOYwu6Zt36TXJ955VuXZVQIzQgVqtWDRe/u2T6spOLitaWVGinH7kJ123YZHIh0a5gGkCcHB0LzR8N8GfPJsj0VG46yEV048ZNtGzeTEllCa3pnTz5lcU1tNPx+IncNVvqULTGsyZqvcwPQenILXvqq3j52RZ/ijT0wxDqrzjR7kayKMZPmCJdrYGDBpoGzZo1a8oJjyooNBjv2fu5PFehQZrqjHaSE1QH9lxnDpXlheebYuOmzaay0NoUuZbNobqksqn1QmSKZ9DOdGuRUKHBjAbuKdPCpOVCZadrydVIVtL0sNniHr/IHbO7Y/bI+qO2pP6wddt/UU30r7qi/VXIctq2/RMZT+koPe1+przlJ7D29DN7uNe+aA3t3idvRfTmj6UbmKCJCL0JoFKcfkbiSN/ths89l2dsoKNj+3bSo0RuZMor5Z/el1WhNv1D5J+saxIncqtSeQh6Nq0Lk+ib7xewF3vb4mkxqTopykfPpzzSc6muyKInsaQwaoPNH2+zyLst7BnHmMJ52aMV6rq55tktrIosxVGakuSBCCwJIb1C4e5eVwmxhNyZ7du1ldvjySqhTh0YMEB2KI92neDbf6C0xnz69JIdt33nbmjTtpPs5ANe7a/chWbPlTF+7Bi8H74c/QYMlr9CROlp5qxCa0i+Pr0xaepMBAQGyxm+OfQLL7t2fyYH0xdf6mByVQUNCxHW0c8IGOgvJww9ffzk9eTetl43mjh+rBSdzl495LWDh47AzxkZcp2nsPzRhg2audJrOp7de6GLuAeJzdzZs/K16mhAnzp5AsKXrZDXdO/pIwcdX1FfKpSfIYMDjBtO/Aehew8f+YtM9JyC3uukwSl4xGh06dZDHj16+0nrvp+fL95b8o7F+mJXz86oJerXx2+ArBtaDmj38ktKrBF69ca/X1+MGDVW1k3khx/ZdZ05VJZhQwNlffby9Yd3776YNXse/Pr2ke40FarLf8yaIQe1lzt4yjL39Q/A7ds/mF6bsIbuTZvKxoWORuSqNejo2R2tPNrLvH3/fSpmTpss+xltcgkOCsSMWbPxSk9fWTdXrlzDDBFvXp8dRL+mgdan36sy3ZTpYRgaOEgKeX7Q96GwfmYP99oXraE1/kkTxsmBv7OXt6zPDz+KwrDgQCVF0fsZTXTIY+DZpbO0PG3h4lJDTqjUd+Ypn6HjJ6O3b3+8GhCEiVOmy/HCtU4d2a4HvoiV5Q0YMkz2V/KOUX1SvRYVe9viJY82cgLs22+gXAL7THxnyYNCbT1v/tsybNCQ4XixZUuLvRG2sGccYwrnhSYNMTYkyOarOBRGcZSmJCkjOqjJh6G/lQ6XJ3Nfpi9tUFbJWiCL1ny2T+9U0mw0P5cJXUdpKJ6+8Lag9V7qtLTBqjio68UFuW1oU0TswUNyIKbNJir25I8orJzW2HtfKjcJsNzRm48VdS/QGhwdBdUtxf/2W7YYdCuaBj57rrPG3muovX7//Q+L59kDXUduQhIHWxZQfn3UGqpzeoebXORFsaTs6Wf2cK990Rp78qV1PyuoTbV4tj1lpjTW4wpZoL/+mlXkti9u2zD3D2sN/UsJ7F8dsv7ohyu2btuBkSOGihntX+sXm5iHB+6LDFPyWGvoA3ER/x2h9acl74XL7fXk+jLficww9xPuiwxzf2ALlmEYhmFKALZgGYZhGOY+wALLMAzDMBrAAsswDMMwGsACyzAMwzAawALLMAzDMBrAAsswDMMwGsACyzAMwzAawALLMAzDMBrAAsswDMMwGsACyzAMwzAawALLMAzDMBqQ57eIGYZhGIYpHvxbxAzDMAyjMXks2CqVnZRPDMMwDMPYy48/ZbAFyzAMwzBawwLLMAzDMBrAAsswDMMwGsACyzAMwzAawALLMAzDMBrAAsswDMMwGsACyzAMwzAawALLMAzDMBrAAsswDMMwGsACyzAMwzAawALLMAzDMBrAAsswDMMwGqC5wBrSU5Fw6gzixZF0NROGHCWCYRiGYR5itPtvOlnJiJ41CRGnANcGLtCJIIM+Gdd1XRC6ZBr83CikCOQYkJlpgM7REToHJYxhGIZ5KPkm8RyOnziN3j27ofqTTyihRm7e+gGf7tqLNq2bo0mj55TQB8/9+W86OclYOzIEUY5jsPHATmxcFYk14tj4yU58MCgTEaNnY9cNJa29pO/H3J7zsY//JzzDMMxDD4nrpZRURG/ZLgVVhc4pjOIoTWlGE4HNjF2PyGx/LH3DG67mhqqDI+r5vYm3u53BghUHkKkE/xXJTD2DhBsG5ZMlhhuJiE8todLlpCMpUQ/bT/qbYNAj4V7rgO5xKvX+9rk7qfn2EYZhCka1XFVBpb/m5xRHaYrD22+9JQ+t0UBg0/Hl/sNw6e2Jxja9wDp49AiES+wxxCujXVrsYgQvOow040cj6YexYORiHBIWa0J0CIKnr0Y8ziByujgX1nFwdKJIlIhocR6dmI74qNkI7tsNEWeNlyMzGbuWTpJh3QaHIEwIekqWEicxIGX/SoQN80MnLz8ET5qP6FP2m8eOWYmYu+KwjQE7EwdXrESKmEzcK2mnNmB8UBDGRZ1BhhJWKrh6GJFxeuXDfeDOGUTdax1kXsTOyBNIUT7eF1JjEHX6rzyNZJgHBwnoQP++FiJrLq5qXFF5d+lS/PPNefKgcy3RQGD1SDoKNKntony2gXNVuOIwLqQqn7PSkHTbavjMyUDa+TRk5ACNfd7FspmBaIJGCJopzpeIw6eRTJZ2XgjpgvnYV9kXcz7YhqENRKAQv4jRodhZORBvr9mGbe/NQkfDegTP2IEUZZNVZuwiBEcBfu9EI/azaCyb1AOG2DhTfKE08EEI/ou9V5XPKud3IBK+6FZb+VxsDEgzNMKctQvRSwkpNaQnYG3CX8xXX7UdZq7yR2PlI8MwpR9rkb1XcV2xfDlmhc3E9Bkz5EHnFKYVmu0idnYuwIKr5IyaQkDs3lFc3hGOlXXC9tWhbGVxXkkc5ZU4ga7365jp0wyu1US4sJr1e1ci2nEM5g5vBhdKW60OvMbNwtDr4VgbZ7QoUs4dgKuvN1pUExc46OBYuxmCpvnA1e4NVI7o2Msd2/cnK58JA+L37EevgC4iVpCVKqzoGRg1NhSjpoZj1yXVXZiOQ4sWY1fsFoQN9kPYfltipUO9l5vB2c78pJ3egDDxnGBxhAlrL43q9sYBzFtqaWXrY+Yj8pQSkl/+yHuwKAbHYsIxZexQDBo8G9HnjXFGb0MMECP+jgzBglhj3g1iYjFvktG7MH7+DiRZeAvMyNHj2IrZ4pkh4piBd2NSTa5fw6UYvDtV5EXkZ8rSGCuPgyUFpdUfJc+EkhdRfj3VhSyTmZckKxnb5k8yekMmzcc2pXymtjluvP+gwUMRFp1syiN5RvaJ/MvrxGERJ8q2b6log2EiX7M3IP6WEq5gdx0xDFPirP7wQ0yeNBHjX38dc+e9KQ86pzCK0wJNBFYnxC9FX4CFcycN1+EuxE/5fI+0aFBHOSMMSPkuEfW6CnFVQiQO7mjRCTh4yWg21+swGIYP3sK86AOIP69HpmmUtB9dc2947RdCpA6Udw6LgdoHXmRFC1k7tCgcGb4L8cHyCHyw0AcZkVuQpEwqMm7HIPqcO8LWbsPbnrm7zopF8gZMiRX3+lcE1ohnhbnHISJWiGiN1vC4sznXys4R4vCpKzo2J/kvIH/kPdgZgyS3MViyPAob32qOg1FGcXLuNBVrpnkD3uLvqkjM7CTyLsq9YJEefm8ZN7Mt6a2XYmbTOfo/YeE/MVw8M1IcCxHU3EnuMJf3CM9E34UiLyI/S3wzEbHZfPJiRkFpRV2E7ayDccrGun8NaQQnmqRQmUxeEir7Yuh7L5Rp1rzlC/2iRTh0xxhLbbPzvDtCF0dg49p5aHFoNQ6q3bm8M5r0fcN43aoI9EpZjJ2KJyZp/Uzse24W1nwk8jWnC9LixEREpSh1xDCMRHUNq5arasmqYfayYf16hI59DSNDQvCO+O6r0DmFURylKWk0EFh3NOkGxJ/LtUysMXyXjGPlm6H+PbtRbSEsYzFqOelsLgDDkG38q2s0HBs3ToVXpTQcWj8HAT27IXh1Yr55tokQba9+yYjaa1yP1Mf+F+jnaRR2QyLiL9WBc5rxHeD402KE1iUgyTTvcEffHs3gWAKvHKWcjYNLTeDCaeOzLmTpkJJEo76llW04HYP47l1Qj55ZWP4aeKJDA6UO64g2PZqE/FZdDedOI6WHNxorXgVdU2/0vHrItMZuQWVn4NB+7KNJjZiYONcwTi7oHknPOAtLXMmPUHNdYrLlurxCQWmThOXp2q09XNR6rVbV6E0wh8p+VeSxqVK+8o3Qs8dlHDStl4p27eRuFH6HOqjf9ASS1EmKQ1W4VDVAf56enSgs52TopTCLPr27Gfw8lWmdgws6ensazwVFqiOGYfKIK7mFrddk7RHZj7dswcgRwxE4ZAj+tSxCCc2FwiiO0lDakkQDgdWhRVd/OG/bjH22XsUhN9q2HXAN9ETjgsRFn4p45VRS3glOJH+FupUd4eLmgviEy1ZiqceFs4DHs2Z2bTV3eHj7Y5KwKj795E3Uiwo3WSP24uI9HPW3HhCWn7AOt7rDr70ynBsMyKhcB6713FFfOXpNfgNeJmO1KspWUE7vEcOvmXji6Uam59RvFYhlwcY1atXKjhezjoM709Czk1L+wvJXWSfq2z4MWRlWExpd/mVz88eatz1RUwj7pkWhGLXshLTi6B7OTz2dW4Z63gib4wkhx3koLK1TeduTKxNU9goij8pHoqzOXIbzbxtD4moET9yMb1BDPtvVwvmgs3hHW2dWJ0WqI4Zh5Huu5uKqWrDmIktpCuP06dPo7++PyFX5u4EpjtJQ2pJEGxdx0+GYO/AGFoyYjeizetNaq+HqGaydGoIFen/M7OduDBQ4uzeGy/E4HFSthMxErP1gh/JBwbEGXGucwc44RQELENp63YfDI3YlIo6azEXod4Yj4pKPEEDjiJgUG4MkxSUouZMmLKBiiJ6uGXp67kf0os2I7+ePFuoY6lgXjbOPIylLWTOmgwbfgiYVxcS1QWthgSZDpz6nksiEWj+Klb3tw/XYVdUXHVW3/L3kT0x2XO5kmiYwjqL9snefyN0gduMMDmY3Rr08pqMgywBDpTpo/LI3QuZMRcevhGUnguU9jicjwzE3PyZozT4l3biuLCgorevz7RB/9Ezu5CozN58mZNlj8KU6mRKTvvg4Axq728qwJRmpyXDqLiYtDVzg6JiBtGtKBKhMMTh0Sn2aQeTjsHJexDpiGEb+iISba508G5pUkaU4SlMYCxYuxLr1G5RP+UNpKG1Jot0vOYkBJmX/akSs2IFjt5VBp3xVePhMw+RRrXNdeBIDkqJnYNyKM9Ka0bl7Y25oI+x8PQ4dty9Ez2pKqvNbMGXKSsSTMJYfjA/2tcHBdqHA8liENjWmUaG0YWGrcczgCGdDOrLdfDD5jdfhpbilaSPM0qU7hJUsrLjKaUi55SIsuFmYpFp4ReHqDowaeBp+u96El/m68o3DePef63HBpRnqZ53BhUqvYu6ELnDRpWPX1EXAtNyy5YVeQQrHPlE311MzULOOsM86v441A42WqSVUf7Ox4HMdmjTT4cKZTLwkrNGgRsrofecAwnquRv1VmxAk14cV8svfnRhMEdmbudhbsQoTEdFOtMXhMcZduOSFmBeKiKvOcO4k8hTYCPrYxZi7Og31mwHxyc4ImTsVHWrIiy1IOxqOeVGpcG7aCE7XTiCj0zzM6Wasc31sOOauT0bNZu7IPiOELGAWJnvSr4AZkLA6FGGxgMfwhXLdt6C01Jfm7XZEvQbpSMn0xJw3feBqXSZR9gVzVyPNXWRYXO88fJa4L+Ujb9skrOiEg22VPpaViMiJK6Fv1AxOmWXF81YDPczixs5GvFt71EzPgEcnZ+xzeBVLvI2TOnvriGGYvybWv+SkocCakZWJzBydmPEX4rqjn0PMErP9QtIZhPUkEtn3k4n0bAdh5eR3S4OIN9iRt3tBlMtg5T7UCoOYy+Sz/Jw/xc2fjYcZRPvRJrdCKSij+cXZCi/gPgU9woSwqFGYS9kWxcm/gt11xDDMX4oHI7AMwzAM85Bzf36LmGEYhmH+5rDAMgzDMIwGsMAyDMMwjAawwDIMwzCMBrDAMgzDMIwGsMAyDMMwjAawwDIMwzCMBrDAMgzDMIwGsMAyDMMwjAawwDIMwzCMBrDAMgzDMIwGsMAyDMMwjAawwDIMwzCMBuT5bzoMwzAMwxSPAv9dnXkkwzAMwzD2Ya2h7CJmGIZhGA1ggWUYhmEYDWCBZRiGYRgNYIFlGIZhGA1ggWUYhmEYDWCBZRiGYRgNYIFlGIZhGA1ggWUYhmEYDWCBZRiGYRgNYIFlGIZhGA1ggWUYhmEYDWCBZRiGYRgNKBUCS/9vICMjE7/99psSYsndu3fx888/4/fff1dC7j+//vqrPEorOTk5so7ob2lHbc+i1GdhfYRhGKa0USoE9oe0NLw2bgLefX8ZDIa8IvrzzxkYN2EKzn6TqITcf1avWSuP0srlK1cQKuqI/pZ21PYsSn1mZ2dj4eKl2Pv5ASWEYRjGfr7+5lssj1yLm7duKyG5UBjFUZqSpFQI7MGDh1GlShVcvHQJqZcvK6HMw8rjjzth2ftLMDw4SAlhGIbRlqPHTgmNSUHUxq0WIkvnFEZxlKYkeeACS67CuCNHMHzoELzs0QZxh49IdyDz8PLII48IkX0cFSpUUEIYhmG0pZ+PN2pUfxI3bt4yiawqrhRGcZSmJHngApuQeE4OtO716qJ9u7Y49dVp6TK2Ba2/Ra3biN6+/eVB5+Q6VLmu1yPyw48wOGg4Onv1wITJ03Du/AUllp71LWa+MQfnLyRh1j/myjTBI0bj2PETFqKuv3HDFD/qtfE4eSpexCuRCrSOePTL4xgxaiy8vHsj9PXJSjpjQpo40LO+ij9dYJ7JJb5zV4zMc/cePvKaC0nJSqxtaJ11V8weDBgUJJ+9MvJD/PjjT0psLlSOtxYskmkoLT3HlgtexTwvVPYZs2bLuqIyZWX9Jp9J5aQ4SkOf1TVfW+WNP/11njoPGROKW7d/kMsB+w/E5nutrboi/vjjD4uyvxcegTt37iixhbcLwzB/T6o/WQ1DB/WzEFlzcaU4SlOSPFCBJcHc/dkedO7UARXKl0edp59GTZca0mVsi38LIaGKiPooEuHvLcaZr/+HZcv/LQd5GkDjDh9FjRrV8f7SRdi+ZRO8u3fD4nffx+0ffpDXZ2cbcPz4Sbn2NyhgALZu3oBuXp5Y+t4yXLt2Xaa5evUaJk6ejmdcXbFl0zrMmz0LJ06exD6ztT961q6Yz/DhR1EYN3a0SLcegwb6Y4l41pfHjss0d+/+ievX9Vi+MhIuLtVlnueKe326cxcOxhnLR/n+KGod9n9xEP+c9w9s2rAGHcQk4x9z3sQFIUi2oGev3xCNLVu3Y+b0KfLZLzRtghX/XoVffvlFSQWkpKRi8tSZaN26FXZ/sg0rI8LlZGNT9GabYmOelzfCpsv66+vTR5T9lBSti999h8uXr2Dq5Akybu7sMGzbvkPEfyWvV8sbvmwFypUri8iVEWjUsIGpziNWfIAe3q/gnbfno2KF8khLT8cvyiYne+pKZcvH25GRkYGI8Hexctn7+CYxEVtFPqhM9rQLwzB/X6xFVktxJR6owJKlRlZW82YvyM863WPo3s1LuozJqrGmY4d2UhCrVqkiBTD0tVHS4r30fQrKlCmDAf790LtnDzzxhDMqV66EF1u1hMMjDrgpKlGlbNmycu2v4XMN5H16vNIdT4qKva6/IeOPCTF46qnaCAh4Vd6HBDsocBBq164l4wmysLdu/wQjhwfjeSFu9CyPNq0xfFgQNkZvkbtdVSi/Xp5d5LOonD17vIJz5y5IMaB8xx6Mk+Wg8lAaSk/Hx0I0bO2apmd/cSgOo0cOt3h2/36+yP7NaO0ZhWYPunTuiC6dOuKxxx5DlSqVETDAXwrSTz/lWnwq5nlpUL+eUn8tZNkdHBzQpHEjvDZ6pJgEPSXj6j77rCjP88IyzfUQEN27dcWr/f1kvZUrV06GPfrooxgzagRe8mgt80H3s0VBdaXSqmVz+PfrK9vm2WfdZJkufndJTNayi9QuDMMwWvPABJYspi9iD8l11yecnZVQoHHjhtJlTK5ja154/nkppCo1qleHs3NVk3uULK1rwhIiq4oszqh1G3DlylVpRalUF7MVuk7lsccelYM+CT3lKSU1VQ7uZFGrODk5SdFRSU9Lh06IVt26bkqIkXrudZGVlYX0H39UQgD3unUt8uwsykoWNbk+b968idq1aqJWTRclFjItlfPS99/Le1mT37NJ8KgcBF33vRBMEjhyj1J90HEhORk//vQTfrqT151MeaG6NK8ba2jSQ27fI0e/lNbuma/PWljNRIP69S3KS9QU5atVs6byKX8KqisVd1HH5gJdpXIVaf1SmqK0C8Mwfz+s11xVS1Zdky1pHpjA6oXFePjIUenabNmmHVq0biuPdh27yrU5ch0X9s4jWUaVKj0OgyFbrh8ueTccb85fINfkKlWqhCZNGgmxzhXKwiCBzjYYUE5YuebQoO/gkFtVv//xB+7+eVc+35occY+7d+17F/U3IQq6sjpx/7zNkPNHjnSdWpPfsx95pAzKPGK8T07OXWTZqDvHio4YOzoET1bL6wqhvJQXgmxeTnMOxB7EkOAQYVGeF5MSHRo1bFigGD8ISqpdGIZ5+LAWV3ILm7uLtRDZByKw5PLb+/l+tGn9Ij7fsxMH9u62OLZEr5dWifVmn0uXvlfOjKSlpUlLrXJlowWa+O05TJsyEV5du6D1iy2lW1N1U9oDuVJpDZgsPbJmVX4V1s9lYQmr0CtFJIA0STBHr7+JsjodnKtWVUIKhgSK1nyt3eFUTtc6T9ucHBT0bHWzD62BktWoE0JI9WB+tGjeDBUrVpTpzHmqVi3cun0b6el5rTyDmHTExR1BUGAABg8aIO/TskUzk8VcWiipdmEY5uFj646YPGuu1muylKYkeSACS2tlR48dN62n0lqZ+eH2jCvavuwhXcjmQkebWZIvfifPaVcrfab1Uje3Z/C4kxMcHnXAlatXpYCrLujCduRa067tyzh58iu5YYosWjo+3/8Fjp/IfT+KGoPyt3HTZiFI6TKM1nmj1q2X657kUraHus+6yXXE6M0fy/IQVL7/fLwVXT07QydEwRp69gvPN83z7A2b/iPPCZoovNLNC//95FOc/SbBtIZJ7taYz/ba3ElcRwg65WXdhk0mty/dn+qBLMJqwuqltU712m+FJXtIiG5poqTahWGYh4+XPVqhrptrng1NqshSHKUpSR6IwJ4+87W0Jmg9zRbkkqVXdr7+31kLa2RYcKDcIUqvs3T28pZiOmnCOLleStbU+LFj8H74cvQbMBiBwSOlONJmpqJAokc7ZWk3rGf3Xuje0weZmZnw7dNLSQG5Bki7kGlzVB+/AfDu3Ve+NtKhfTu589Z6DTI/yLoeHzoGt27dlq+UULlenzQVISOC8ZJHGyWVJfTsYUMDpWu8l6+/fPas2fPg17ePdIur0AYk2kn71oLF6NzV2/jK0ZhxuCvE1pYbmPIycfxYeX9KS+76wUNH4OeMDCnQAQP95cSop48fAgKDpRvfo82LytWlg5JqF4ZhHj5eaNIQY0OCbO4WpjCKozQlSRkxeJoW+vS30uHyZOl3o6lrs7bcv1Qc+o1bijPfDFNU7L0PWcq//pqFihUryB9QKC60Y5h2wjo6VrRbCOgaOgr7wQb1N3/t/WGHgvJSUN2XJkqqXRiGYezFWkP/kgLLMAzDMKUNaw3lqT3DMAzDaAALLMMwDMNoAAsswzAMw2gACyzDMAzDaAALLMMwDMNoAAsswzAMw2gACyzDMAzDaAALLMMwDMNoAAsswzAMw2gACyzDMAzDaAALLMMwDMNoAAsswzAMw2gACyzDMAzDaECe/6bDMAzDMEzxyPff1TEMwzAMUzKwi5hhGIZhShzg/y1MUgG8ASqWAAAAAElFTkSuQmCC;" parent="xvLai2Src9pA2y4OmMQb-340" vertex="1">
          <mxGeometry y="150" width="280" height="393.91" as="geometry" />
        </mxCell>
        <mxCell id="xvLai2Src9pA2y4OmMQb-338" value="&lt;br&gt;&lt;br&gt;&lt;br&gt;- URL ERP-API&lt;br&gt;- Hottok de verificação&lt;br&gt;- Eventos" style="shape=document;whiteSpace=wrap;verticalAlign=middle;strokeColor=#b46504;fillColor=#fad7ac;shadow=0;fontFamily=Helvetica;fontStyle=1;html=1;fontSize=12;spacing=6;spacingBottom=22;fontColor=#ff6600;size=0;" parent="xvLai2Src9pA2y4OmMQb-340" vertex="1">
          <mxGeometry y="50" width="280" height="100" as="geometry" />
        </mxCell>
        <mxCell id="188" value="HOTMART API" style="shape=document;whiteSpace=wrap;verticalAlign=middle;strokeColor=#b46504;fillColor=#fad7ac;shadow=0;fontFamily=Helvetica;fontStyle=1;html=1;fontSize=12;spacing=6;spacingBottom=22;fontColor=#ff6600;" parent="xvLai2Src9pA2y4OmMQb-340" vertex="1">
          <mxGeometry width="280" height="80" as="geometry" />
        </mxCell>
        <mxCell id="170" value="&lt;font color=&quot;#23497d&quot;&gt;ERP&lt;/font&gt;" style="swimlane;whiteSpace=wrap;fillColor=none;swimlaneFillColor=#BAC8D3;fontColor=#2F5B7C;fontFamily=Tahoma;html=1;strokeColor=none;opacity=50;movable=1;resizable=1;rotatable=1;deletable=1;editable=1;locked=0;connectable=1;" parent="1" vertex="1">
          <mxGeometry x="10" y="10" width="430" height="810" as="geometry">
            <mxRectangle x="20" y="20" width="80" height="23" as="alternateBounds" />
          </mxGeometry>
        </mxCell>
        <mxCell id="175" value="" style="edgeStyle=segmentEdgeStyle;strokeColor=#2F5B7C;strokeWidth=3;html=1;endArrow=block;endFill=1;" parent="170" source="xvLai2Src9pA2y4OmMQb-294" target="xvLai2Src9pA2y4OmMQb-218" edge="1">
          <mxGeometry width="100" height="100" relative="1" as="geometry">
            <mxPoint x="125.5" y="61.5" as="sourcePoint" />
            <mxPoint x="105.5" y="181.4999999999999" as="targetPoint" />
          </mxGeometry>
        </mxCell>
        <mxCell id="xvLai2Src9pA2y4OmMQb-234" value="" style="edgeStyle=segmentEdgeStyle;strokeColor=#2F5B7C;strokeWidth=3;html=1;endArrow=block;endFill=1;entryX=0.5;entryY=0;entryDx=0;entryDy=0;exitX=0.963;exitY=0.5;exitDx=0;exitDy=0;exitPerimeter=0;" parent="170" source="xvLai2Src9pA2y4OmMQb-294" target="xvLai2Src9pA2y4OmMQb-228" edge="1">
          <mxGeometry width="100" height="100" relative="1" as="geometry">
            <mxPoint x="125.5" y="61.5" as="sourcePoint" />
            <mxPoint x="116" y="211" as="targetPoint" />
          </mxGeometry>
        </mxCell>
        <mxCell id="xvLai2Src9pA2y4OmMQb-238" style="edgeStyle=orthogonalEdgeStyle;rounded=0;orthogonalLoop=1;jettySize=auto;html=1;fillColor=#d5e8d4;strokeColor=#82b366;" parent="170" source="xvLai2Src9pA2y4OmMQb-227" target="xvLai2Src9pA2y4OmMQb-219" edge="1">
          <mxGeometry relative="1" as="geometry" />
        </mxCell>
        <mxCell id="xvLai2Src9pA2y4OmMQb-239" style="edgeStyle=orthogonalEdgeStyle;rounded=0;orthogonalLoop=1;jettySize=auto;html=1;fillColor=#d5e8d4;strokeColor=#82b366;" parent="170" source="xvLai2Src9pA2y4OmMQb-226" target="xvLai2Src9pA2y4OmMQb-220" edge="1">
          <mxGeometry relative="1" as="geometry" />
        </mxCell>
        <mxCell id="xvLai2Src9pA2y4OmMQb-240" style="edgeStyle=orthogonalEdgeStyle;rounded=0;orthogonalLoop=1;jettySize=auto;html=1;fillColor=#d5e8d4;strokeColor=#82b366;" parent="170" source="xvLai2Src9pA2y4OmMQb-225" target="xvLai2Src9pA2y4OmMQb-222" edge="1">
          <mxGeometry relative="1" as="geometry" />
        </mxCell>
        <mxCell id="xvLai2Src9pA2y4OmMQb-242" style="edgeStyle=orthogonalEdgeStyle;rounded=0;orthogonalLoop=1;jettySize=auto;html=1;" parent="170" source="xvLai2Src9pA2y4OmMQb-241" target="xvLai2Src9pA2y4OmMQb-222" edge="1">
          <mxGeometry relative="1" as="geometry" />
        </mxCell>
        <mxCell id="xvLai2Src9pA2y4OmMQb-243" style="edgeStyle=orthogonalEdgeStyle;rounded=0;orthogonalLoop=1;jettySize=auto;html=1;" parent="170" source="xvLai2Src9pA2y4OmMQb-241" target="xvLai2Src9pA2y4OmMQb-225" edge="1">
          <mxGeometry relative="1" as="geometry" />
        </mxCell>
        <mxCell id="xvLai2Src9pA2y4OmMQb-241" value="Source de controle" style="whiteSpace=wrap;html=1;shape=mxgraph.basic.document;fillColor=#dae8fc;strokeColor=#6c8ebf;fontSize=10;" parent="170" vertex="1">
          <mxGeometry x="100" y="330" width="60" height="80" as="geometry" />
        </mxCell>
        <mxCell id="xvLai2Src9pA2y4OmMQb-275" value="Função:&lt;br style=&quot;font-size: 10px;&quot;&gt;Modelo de Importação" style="whiteSpace=wrap;shadow=0;fontColor=#FFFFFF;fontFamily=Helvetica;fontStyle=0;html=1;fontSize=10;plain-purple;strokeColor=none;fillColor=#2f5b7c;gradientColor=none;spacing=6;verticalAlign=middle;" parent="170" vertex="1">
          <mxGeometry x="210" y="390" width="120" height="60" as="geometry" />
        </mxCell>
        <mxCell id="xvLai2Src9pA2y4OmMQb-294" value="Função:&lt;br&gt;Gerenciamento&lt;br&gt;Webhook" style="whiteSpace=wrap;shadow=0;fontColor=#FFFFFF;fontFamily=Helvetica;fontStyle=0;html=1;fontSize=12;plain-purple;strokeColor=none;fillColor=#2f5b7c;gradientColor=none;spacing=6;verticalAlign=middle;" parent="170" vertex="1">
          <mxGeometry x="5.5" y="31.5" width="120" height="60" as="geometry" />
        </mxCell>
        <mxCell id="xvLai2Src9pA2y4OmMQb-309" value="Função: Status de processamento." style="whiteSpace=wrap;shadow=0;fontColor=#FFFFFF;fontFamily=Helvetica;fontStyle=0;html=1;fontSize=12;plain-purple;strokeColor=none;fillColor=#2f5b7c;gradientColor=none;spacing=6;verticalAlign=middle;" parent="170" vertex="1">
          <mxGeometry x="70" y="450" width="120" height="60" as="geometry" />
        </mxCell>
        <mxCell id="xvLai2Src9pA2y4OmMQb-321" value="" style="strokeColor=#2F5B7C;strokeWidth=3;html=1;endArrow=block;endFill=1;exitX=0.5;exitY=1;exitDx=0;exitDy=0;edgeStyle=orthogonalEdgeStyle;" parent="170" source="xvLai2Src9pA2y4OmMQb-309" target="xvLai2Src9pA2y4OmMQb-319" edge="1">
          <mxGeometry width="100" height="100" relative="1" as="geometry">
            <mxPoint x="146" y="562" as="sourcePoint" />
            <mxPoint x="226" y="622" as="targetPoint" />
          </mxGeometry>
        </mxCell>
        <mxCell id="xvLai2Src9pA2y4OmMQb-223" value="" style="group;fontSize=10;" parent="170" vertex="1" connectable="0">
          <mxGeometry x="30" y="110" width="100" height="180" as="geometry" />
        </mxCell>
        <mxCell id="xvLai2Src9pA2y4OmMQb-222" value="&lt;br style=&quot;font-size: 10px;&quot;&gt;&lt;br style=&quot;font-size: 10px;&quot;&gt;Tela 3 - Extras&lt;br style=&quot;font-size: 10px;&quot;&gt; " style="shape=document;whiteSpace=wrap;verticalAlign=middle;strokeColor=#82b366;fillColor=#d5e8d4;shadow=0;fontFamily=Helvetica;fontStyle=0;html=1;fontSize=10;spacing=6;spacingBottom=22;movable=1;resizable=1;rotatable=1;deletable=1;editable=1;locked=0;connectable=1;size=0.23566878980891576;align=left;" parent="xvLai2Src9pA2y4OmMQb-223" vertex="1">
          <mxGeometry y="114.37070938215103" width="98.03" height="64.12929061784897" as="geometry" />
        </mxCell>
        <mxCell id="xvLai2Src9pA2y4OmMQb-220" value="&lt;br style=&quot;font-size: 10px;&quot;&gt;&lt;br style=&quot;font-size: 10px;&quot;&gt;Tela 2 - Detalhes&lt;br style=&quot;font-size: 10px;&quot;&gt; " style="shape=document;whiteSpace=wrap;verticalAlign=middle;strokeColor=#82b366;fillColor=#d5e8d4;shadow=0;fontFamily=Helvetica;fontStyle=0;html=1;fontSize=10;spacing=6;spacingBottom=22;movable=1;resizable=1;rotatable=1;deletable=1;editable=1;locked=0;connectable=1;size=0.23566878980891576;align=left;" parent="xvLai2Src9pA2y4OmMQb-223" vertex="1">
          <mxGeometry y="73.52402745995424" width="98.03" height="64.12929061784897" as="geometry" />
        </mxCell>
        <mxCell id="xvLai2Src9pA2y4OmMQb-219" value="&lt;br style=&quot;font-size: 10px;&quot;&gt;&lt;br style=&quot;font-size: 10px;&quot;&gt;Tela 1 - Header&lt;br style=&quot;font-size: 10px;&quot;&gt; " style="shape=document;whiteSpace=wrap;verticalAlign=middle;strokeColor=#82b366;fillColor=#d5e8d4;shadow=0;fontFamily=Helvetica;fontStyle=0;html=1;fontSize=10;spacing=6;spacingBottom=22;movable=1;resizable=1;rotatable=1;deletable=1;editable=1;locked=0;connectable=1;size=0.2138728323699422;align=left;" parent="xvLai2Src9pA2y4OmMQb-223" vertex="1">
          <mxGeometry y="42.48054919908467" width="98.03" height="54.32608695652174" as="geometry" />
        </mxCell>
        <mxCell id="xvLai2Src9pA2y4OmMQb-218" value="Objeto: Janela&lt;br style=&quot;font-size: 10px;&quot;&gt; " style="shape=document;whiteSpace=wrap;verticalAlign=middle;strokeColor=none;fillColor=#12aab5;shadow=0;fontColor=#FFFFFF;fontFamily=Helvetica;fontStyle=0;html=1;fontSize=10;spacing=6;spacingBottom=22;movable=1;resizable=1;rotatable=1;deletable=1;editable=1;locked=0;connectable=1;" parent="xvLai2Src9pA2y4OmMQb-223" vertex="1">
          <mxGeometry width="98.03" height="65.35469107551488" as="geometry" />
        </mxCell>
        <mxCell id="xvLai2Src9pA2y4OmMQb-224" value="" style="group;fontSize=9;" parent="170" vertex="1" connectable="0">
          <mxGeometry x="150" y="110" width="100" height="180" as="geometry" />
        </mxCell>
        <mxCell id="xvLai2Src9pA2y4OmMQb-225" value="&lt;br style=&quot;font-size: 10px;&quot;&gt;&lt;br style=&quot;font-size: 10px;&quot;&gt;Tabela 3 - Extras&lt;br style=&quot;font-size: 10px;&quot;&gt; " style="shape=document;whiteSpace=wrap;verticalAlign=middle;strokeColor=#82b366;fillColor=#d5e8d4;shadow=0;fontFamily=Helvetica;fontStyle=0;html=1;fontSize=10;spacing=6;spacingBottom=22;movable=1;resizable=1;rotatable=1;deletable=1;editable=1;locked=0;connectable=1;size=0.23566878980891576;align=left;" parent="xvLai2Src9pA2y4OmMQb-224" vertex="1">
          <mxGeometry y="114.37070938215103" width="98.03" height="64.12929061784897" as="geometry" />
        </mxCell>
        <mxCell id="xvLai2Src9pA2y4OmMQb-226" value="&lt;br style=&quot;font-size: 10px;&quot;&gt;&lt;br style=&quot;font-size: 10px;&quot;&gt;Tabela 2 - Detalhes&lt;br style=&quot;font-size: 10px;&quot;&gt; " style="shape=document;whiteSpace=wrap;verticalAlign=middle;strokeColor=#82b366;fillColor=#d5e8d4;shadow=0;fontFamily=Helvetica;fontStyle=0;html=1;fontSize=10;spacing=6;spacingBottom=22;movable=1;resizable=1;rotatable=1;deletable=1;editable=1;locked=0;connectable=1;size=0.23566878980891576;align=left;" parent="xvLai2Src9pA2y4OmMQb-224" vertex="1">
          <mxGeometry y="73.52402745995424" width="98.03" height="64.12929061784897" as="geometry" />
        </mxCell>
        <mxCell id="xvLai2Src9pA2y4OmMQb-227" value="&lt;br style=&quot;font-size: 10px;&quot;&gt;&lt;br style=&quot;font-size: 10px;&quot;&gt;Tabela 1 - Header&lt;br style=&quot;font-size: 10px;&quot;&gt; " style="shape=document;whiteSpace=wrap;verticalAlign=middle;strokeColor=#82b366;fillColor=#d5e8d4;shadow=0;fontFamily=Helvetica;fontStyle=0;html=1;fontSize=10;spacing=6;spacingBottom=22;movable=1;resizable=1;rotatable=1;deletable=1;editable=1;locked=0;connectable=1;size=0.2138728323699422;align=left;" parent="xvLai2Src9pA2y4OmMQb-224" vertex="1">
          <mxGeometry y="42.48054919908467" width="98.03" height="54.32608695652174" as="geometry" />
        </mxCell>
        <mxCell id="xvLai2Src9pA2y4OmMQb-228" value="Tabelas&lt;br style=&quot;font-size: 10px;&quot;&gt; " style="shape=document;whiteSpace=wrap;verticalAlign=middle;strokeColor=none;fillColor=#12aab5;shadow=0;fontColor=#FFFFFF;fontFamily=Helvetica;fontStyle=0;html=1;fontSize=10;spacing=6;spacingBottom=22;movable=1;resizable=1;rotatable=1;deletable=1;editable=1;locked=0;connectable=1;" parent="xvLai2Src9pA2y4OmMQb-224" vertex="1">
          <mxGeometry width="98.03" height="65.35469107551488" as="geometry" />
        </mxCell>
        <mxCell id="xvLai2Src9pA2y4OmMQb-328" value="" style="edgeStyle=orthogonalEdgeStyle;strokeColor=#2F5B7C;strokeWidth=3;html=1;endArrow=block;endFill=1;" parent="170" source="xvLai2Src9pA2y4OmMQb-241" target="xvLai2Src9pA2y4OmMQb-275" edge="1">
          <mxGeometry width="100" height="100" relative="1" as="geometry">
            <mxPoint x="175.5" y="380.5" as="sourcePoint" />
            <mxPoint x="500.5" y="192.5" as="targetPoint" />
          </mxGeometry>
        </mxCell>
        <mxCell id="xvLai2Src9pA2y4OmMQb-331" value="" style="edgeStyle=orthogonalEdgeStyle;strokeColor=#2F5B7C;strokeWidth=3;html=1;endArrow=block;endFill=1;exitX=0.5;exitY=1;exitDx=0;exitDy=0;dashed=1;" parent="170" source="xvLai2Src9pA2y4OmMQb-275" target="xvLai2Src9pA2y4OmMQb-309" edge="1">
          <mxGeometry width="100" height="100" relative="1" as="geometry">
            <mxPoint x="243.52999999999997" y="521.5" as="sourcePoint" />
            <mxPoint x="321.53" y="572.5" as="targetPoint" />
          </mxGeometry>
        </mxCell>
        <mxCell id="xvLai2Src9pA2y4OmMQb-320" value="" style="edgeStyle=orthogonalEdgeStyle;strokeColor=#2F5B7C;strokeWidth=3;html=1;endArrow=block;endFill=1;exitX=0.5;exitY=1;exitDx=0;exitDy=0;" parent="170" source="xvLai2Src9pA2y4OmMQb-309" target="xvLai2Src9pA2y4OmMQb-314" edge="1">
          <mxGeometry width="100" height="100" relative="1" as="geometry">
            <mxPoint x="86" y="592" as="sourcePoint" />
            <mxPoint x="86" y="622" as="targetPoint" />
          </mxGeometry>
        </mxCell>
        <mxCell id="xvLai2Src9pA2y4OmMQb-310" value="" style="group;fontSize=10;" parent="170" vertex="1" connectable="0">
          <mxGeometry x="30" y="580" width="100" height="180" as="geometry" />
        </mxCell>
        <mxCell id="xvLai2Src9pA2y4OmMQb-311" value="&lt;br style=&quot;font-size: 10px;&quot;&gt;&lt;br style=&quot;font-size: 10px;&quot;&gt;Tela 3 - Extras&lt;br style=&quot;font-size: 10px;&quot;&gt; " style="shape=document;whiteSpace=wrap;verticalAlign=middle;strokeColor=#82b366;fillColor=#d5e8d4;shadow=0;fontFamily=Helvetica;fontStyle=0;html=1;fontSize=10;spacing=6;spacingBottom=22;movable=1;resizable=1;rotatable=1;deletable=1;editable=1;locked=0;connectable=1;size=0.23566878980891576;align=left;" parent="xvLai2Src9pA2y4OmMQb-310" vertex="1">
          <mxGeometry y="116.67093821510298" width="100" height="65.41906178489701" as="geometry" />
        </mxCell>
        <mxCell id="xvLai2Src9pA2y4OmMQb-312" value="&lt;br style=&quot;font-size: 10px;&quot;&gt;&lt;br style=&quot;font-size: 10px;&quot;&gt;Tela 2 - Detalhes&lt;br style=&quot;font-size: 10px;&quot;&gt; " style="shape=document;whiteSpace=wrap;verticalAlign=middle;strokeColor=#82b366;fillColor=#d5e8d4;shadow=0;fontFamily=Helvetica;fontStyle=0;html=1;fontSize=10;spacing=6;spacingBottom=22;movable=1;resizable=1;rotatable=1;deletable=1;editable=1;locked=0;connectable=1;size=0.23566878980891576;align=left;" parent="xvLai2Src9pA2y4OmMQb-310" vertex="1">
          <mxGeometry y="75.00274599542334" width="100" height="65.41906178489701" as="geometry" />
        </mxCell>
        <mxCell id="xvLai2Src9pA2y4OmMQb-313" value="&lt;br style=&quot;font-size: 10px;&quot;&gt;&lt;br style=&quot;font-size: 10px;&quot;&gt;Tela 1 - Header&lt;br style=&quot;font-size: 10px;&quot;&gt; " style="shape=document;whiteSpace=wrap;verticalAlign=middle;strokeColor=#82b366;fillColor=#d5e8d4;shadow=0;fontFamily=Helvetica;fontStyle=0;html=1;fontSize=10;spacing=6;spacingBottom=22;movable=1;resizable=1;rotatable=1;deletable=1;editable=1;locked=0;connectable=1;size=0.2138728323699422;align=left;" parent="xvLai2Src9pA2y4OmMQb-310" vertex="1">
          <mxGeometry y="43.334919908466816" width="100" height="55.41869565217391" as="geometry" />
        </mxCell>
        <mxCell id="xvLai2Src9pA2y4OmMQb-314" value="Objeto: Janela&lt;br&gt; " style="shape=document;whiteSpace=wrap;verticalAlign=middle;strokeColor=none;fillColor=#12aab5;shadow=0;fontColor=#FFFFFF;fontFamily=Helvetica;fontStyle=0;html=1;fontSize=12;spacing=6;spacingBottom=22;movable=1;resizable=1;rotatable=1;deletable=1;editable=1;locked=0;connectable=1;" parent="xvLai2Src9pA2y4OmMQb-310" vertex="1">
          <mxGeometry width="100" height="66.66910755148741" as="geometry" />
        </mxCell>
        <mxCell id="xvLai2Src9pA2y4OmMQb-333" value="" style="edgeStyle=orthogonalEdgeStyle;rounded=0;orthogonalLoop=1;jettySize=auto;html=1;" parent="170" source="xvLai2Src9pA2y4OmMQb-322" target="xvLai2Src9pA2y4OmMQb-316" edge="1">
          <mxGeometry relative="1" as="geometry">
            <mxPoint x="185.5" y="761.5" as="targetPoint" />
            <Array as="points">
              <mxPoint x="189" y="790" />
            </Array>
          </mxGeometry>
        </mxCell>
        <mxCell id="xvLai2Src9pA2y4OmMQb-335" style="edgeStyle=orthogonalEdgeStyle;rounded=0;orthogonalLoop=1;jettySize=auto;html=1;" parent="170" source="xvLai2Src9pA2y4OmMQb-322" target="xvLai2Src9pA2y4OmMQb-311" edge="1">
          <mxGeometry relative="1" as="geometry">
            <Array as="points">
              <mxPoint x="80" y="790" />
            </Array>
          </mxGeometry>
        </mxCell>
        <mxCell id="xvLai2Src9pA2y4OmMQb-336" style="edgeStyle=orthogonalEdgeStyle;rounded=0;orthogonalLoop=1;jettySize=auto;html=1;" parent="170" source="xvLai2Src9pA2y4OmMQb-322" target="xvLai2Src9pA2y4OmMQb-275" edge="1">
          <mxGeometry relative="1" as="geometry" />
        </mxCell>
        <mxCell id="xvLai2Src9pA2y4OmMQb-322" value="Source de controle" style="whiteSpace=wrap;html=1;shape=mxgraph.basic.document;fillColor=#dae8fc;strokeColor=#6c8ebf;fontSize=10;" parent="170" vertex="1">
          <mxGeometry x="266" y="720" width="64" height="80" as="geometry" />
        </mxCell>
        <mxCell id="xvLai2Src9pA2y4OmMQb-334" value="" style="group;" parent="170" vertex="1" connectable="0">
          <mxGeometry x="140" y="580" width="100" height="180" as="geometry" />
        </mxCell>
        <mxCell id="xvLai2Src9pA2y4OmMQb-316" value="&lt;br style=&quot;font-size: 10px;&quot;&gt;&lt;br style=&quot;font-size: 10px;&quot;&gt;Tabela 3 - Extras&lt;br style=&quot;font-size: 10px;&quot;&gt; " style="shape=document;whiteSpace=wrap;verticalAlign=middle;strokeColor=#82b366;fillColor=#d5e8d4;shadow=0;fontFamily=Helvetica;fontStyle=0;html=1;fontSize=10;spacing=6;spacingBottom=22;movable=1;resizable=1;rotatable=1;deletable=1;editable=1;locked=0;connectable=1;size=0.23566878980891576;align=left;" parent="xvLai2Src9pA2y4OmMQb-334" vertex="1">
          <mxGeometry y="114.37070938215106" width="98.03" height="64.12929061784897" as="geometry" />
        </mxCell>
        <mxCell id="xvLai2Src9pA2y4OmMQb-317" value="&lt;br style=&quot;font-size: 10px;&quot;&gt;&lt;br style=&quot;font-size: 10px;&quot;&gt;Tabela 2 - Detalhes&lt;br style=&quot;font-size: 10px;&quot;&gt; " style="shape=document;whiteSpace=wrap;verticalAlign=middle;strokeColor=#82b366;fillColor=#d5e8d4;shadow=0;fontFamily=Helvetica;fontStyle=0;html=1;fontSize=10;spacing=6;spacingBottom=22;movable=1;resizable=1;rotatable=1;deletable=1;editable=1;locked=0;connectable=1;size=0.23566878980891576;align=left;" parent="xvLai2Src9pA2y4OmMQb-334" vertex="1">
          <mxGeometry y="73.52402745995425" width="98.03" height="64.12929061784897" as="geometry" />
        </mxCell>
        <mxCell id="xvLai2Src9pA2y4OmMQb-318" value="&lt;br style=&quot;font-size: 10px;&quot;&gt;&lt;br style=&quot;font-size: 10px;&quot;&gt;Tabela 1 - Header&lt;br style=&quot;font-size: 10px;&quot;&gt; " style="shape=document;whiteSpace=wrap;verticalAlign=middle;strokeColor=#82b366;fillColor=#d5e8d4;shadow=0;fontFamily=Helvetica;fontStyle=0;html=1;fontSize=10;spacing=6;spacingBottom=22;movable=1;resizable=1;rotatable=1;deletable=1;editable=1;locked=0;connectable=1;size=0.2138728323699422;align=left;" parent="xvLai2Src9pA2y4OmMQb-334" vertex="1">
          <mxGeometry y="42.480549199084635" width="98.03" height="54.32608695652174" as="geometry" />
        </mxCell>
        <mxCell id="xvLai2Src9pA2y4OmMQb-319" value="Tabelas&lt;br&gt; " style="shape=document;whiteSpace=wrap;verticalAlign=middle;strokeColor=none;fillColor=#12aab5;shadow=0;fontColor=#FFFFFF;fontFamily=Helvetica;fontStyle=0;html=1;fontSize=12;spacing=6;spacingBottom=22;movable=1;resizable=1;rotatable=1;deletable=1;editable=1;locked=0;connectable=1;" parent="xvLai2Src9pA2y4OmMQb-334" vertex="1">
          <mxGeometry width="98.03" height="65.35469107551488" as="geometry" />
        </mxCell>
        <mxCell id="183" value="&lt;font color=&quot;#23497d&quot;&gt;Módulo Webhook&lt;/font&gt;" style="swimlane;whiteSpace=wrap;fillColor=none;swimlaneFillColor=#BAC8D3;fontColor=#2F5B7C;fontFamily=Tahoma;html=1;strokeColor=none;opacity=25;movable=1;resizable=1;rotatable=1;deletable=1;editable=1;locked=0;connectable=1;" parent="1" vertex="1">
          <mxGeometry x="440" y="11.5" width="390" height="808.5" as="geometry">
            <mxRectangle x="20" y="20" width="80" height="23" as="alternateBounds" />
          </mxGeometry>
        </mxCell>
        <mxCell id="xvLai2Src9pA2y4OmMQb-245" value="Repositório de &lt;br&gt;sincronização" style="html=1;shape=mxgraph.basic.isocube;isoAngle=13.52;verticalAlign=top;horizontal=1;align=center;labelPosition=center;verticalLabelPosition=bottom;labelBackgroundColor=none;labelBorderColor=none;fillColor=#e1d5e7;strokeColor=#9673a6;" parent="183" vertex="1">
          <mxGeometry x="70" y="368.5" width="105" height="115" as="geometry" />
        </mxCell>
        <mxCell id="xvLai2Src9pA2y4OmMQb-274" style="edgeStyle=orthogonalEdgeStyle;rounded=0;orthogonalLoop=1;jettySize=auto;html=1;startArrow=classic;startFill=1;" parent="183" source="xvLai2Src9pA2y4OmMQb-257" target="xvLai2Src9pA2y4OmMQb-245" edge="1">
          <mxGeometry relative="1" as="geometry" />
        </mxCell>
        <mxCell id="xvLai2Src9pA2y4OmMQb-345" style="edgeStyle=orthogonalEdgeStyle;rounded=0;orthogonalLoop=1;jettySize=auto;html=1;" parent="183" source="xvLai2Src9pA2y4OmMQb-257" target="xvLai2Src9pA2y4OmMQb-341" edge="1">
          <mxGeometry relative="1" as="geometry" />
        </mxCell>
        <mxCell id="xvLai2Src9pA2y4OmMQb-257" value="Módulo webhook - API ERP" style="swimlane;startSize=20;horizontal=1;containerType=tree;fillColor=#e1d5e7;strokeColor=#9673a6;" parent="183" vertex="1">
          <mxGeometry x="45" y="61" width="315" height="239" as="geometry" />
        </mxCell>
        <mxCell id="xvLai2Src9pA2y4OmMQb-351" style="edgeStyle=elbowEdgeStyle;rounded=0;orthogonalLoop=1;jettySize=auto;html=1;startArrow=none;endArrow=none;" parent="xvLai2Src9pA2y4OmMQb-257" source="xvLai2Src9pA2y4OmMQb-259" target="xvLai2Src9pA2y4OmMQb-352" edge="1">
          <mxGeometry relative="1" as="geometry">
            <mxPoint x="55" y="197.5" as="targetPoint" />
          </mxGeometry>
        </mxCell>
        <mxCell id="xvLai2Src9pA2y4OmMQb-259" value="Gerenciador" style="whiteSpace=wrap;html=1;treeFolding=1;treeMoving=1;newEdgeStyle={&quot;edgeStyle&quot;:&quot;elbowEdgeStyle&quot;,&quot;startArrow&quot;:&quot;none&quot;,&quot;endArrow&quot;:&quot;none&quot;};fillColor=#dae8fc;strokeColor=#6c8ebf;" parent="xvLai2Src9pA2y4OmMQb-257" vertex="1">
          <mxGeometry x="90" y="40" width="120" height="40" as="geometry" />
        </mxCell>
        <mxCell id="xvLai2Src9pA2y4OmMQb-265" value="" style="edgeStyle=elbowEdgeStyle;rounded=0;orthogonalLoop=1;jettySize=auto;html=1;elbow=horizontal;startArrow=none;endArrow=none;" parent="xvLai2Src9pA2y4OmMQb-257" source="xvLai2Src9pA2y4OmMQb-259" target="xvLai2Src9pA2y4OmMQb-266" edge="1">
          <mxGeometry relative="1" as="geometry" />
        </mxCell>
        <mxCell id="xvLai2Src9pA2y4OmMQb-266" value="Elementos comunicação" style="whiteSpace=wrap;html=1;treeFolding=1;treeMoving=1;newEdgeStyle={&quot;edgeStyle&quot;:&quot;elbowEdgeStyle&quot;,&quot;startArrow&quot;:&quot;none&quot;,&quot;endArrow&quot;:&quot;none&quot;};fillColor=#dae8fc;strokeColor=#6c8ebf;" parent="xvLai2Src9pA2y4OmMQb-257" vertex="1">
          <mxGeometry x="165" y="147.5" width="120" height="40" as="geometry" />
        </mxCell>
        <mxCell id="xvLai2Src9pA2y4OmMQb-267" value="" style="edgeStyle=elbowEdgeStyle;rounded=0;orthogonalLoop=1;jettySize=auto;html=1;elbow=horizontal;startArrow=none;endArrow=none;" parent="xvLai2Src9pA2y4OmMQb-257" source="xvLai2Src9pA2y4OmMQb-259" target="xvLai2Src9pA2y4OmMQb-268" edge="1">
          <mxGeometry relative="1" as="geometry" />
        </mxCell>
        <mxCell id="xvLai2Src9pA2y4OmMQb-268" value="Elementos de segurança" style="whiteSpace=wrap;html=1;treeFolding=1;treeMoving=1;newEdgeStyle={&quot;edgeStyle&quot;:&quot;elbowEdgeStyle&quot;,&quot;startArrow&quot;:&quot;none&quot;,&quot;endArrow&quot;:&quot;none&quot;};fillColor=#dae8fc;strokeColor=#6c8ebf;" parent="xvLai2Src9pA2y4OmMQb-257" vertex="1">
          <mxGeometry x="185" y="90" width="120" height="40" as="geometry" />
        </mxCell>
        <mxCell id="xvLai2Src9pA2y4OmMQb-269" value="" style="edgeStyle=elbowEdgeStyle;rounded=0;orthogonalLoop=1;jettySize=auto;html=1;elbow=horizontal;startArrow=none;endArrow=none;" parent="xvLai2Src9pA2y4OmMQb-257" source="xvLai2Src9pA2y4OmMQb-259" target="xvLai2Src9pA2y4OmMQb-270" edge="1">
          <mxGeometry relative="1" as="geometry" />
        </mxCell>
        <mxCell id="xvLai2Src9pA2y4OmMQb-270" value="Elemento de controle webhook" style="whiteSpace=wrap;html=1;treeFolding=1;treeMoving=1;newEdgeStyle={&quot;edgeStyle&quot;:&quot;elbowEdgeStyle&quot;,&quot;startArrow&quot;:&quot;none&quot;,&quot;endArrow&quot;:&quot;none&quot;};fillColor=#dae8fc;strokeColor=#6c8ebf;" parent="xvLai2Src9pA2y4OmMQb-257" vertex="1">
          <mxGeometry x="10" y="90" width="120" height="40" as="geometry" />
        </mxCell>
        <mxCell id="xvLai2Src9pA2y4OmMQb-352" value="Elementos Configuração" style="whiteSpace=wrap;html=1;treeFolding=1;treeMoving=1;newEdgeStyle={&quot;edgeStyle&quot;:&quot;elbowEdgeStyle&quot;,&quot;startArrow&quot;:&quot;none&quot;,&quot;endArrow&quot;:&quot;none&quot;};fillColor=#dae8fc;strokeColor=#6c8ebf;" parent="xvLai2Src9pA2y4OmMQb-257" vertex="1">
          <mxGeometry x="25" y="147.5" width="120" height="40" as="geometry" />
        </mxCell>
        <mxCell id="xvLai2Src9pA2y4OmMQb-341" value="Repositório de &lt;br&gt;Logs" style="html=1;shape=mxgraph.basic.isocube;isoAngle=13.52;verticalAlign=top;horizontal=1;align=center;labelPosition=center;verticalLabelPosition=bottom;labelBackgroundColor=none;labelBorderColor=none;fillColor=#e1d5e7;strokeColor=#9673a6;" parent="183" vertex="1">
          <mxGeometry x="240" y="368.5" width="105" height="115" as="geometry" />
        </mxCell>
        <mxCell id="xvLai2Src9pA2y4OmMQb-292" value="" style="edgeStyle=orthogonalEdgeStyle;strokeColor=#2F5B7C;strokeWidth=3;html=1;endArrow=block;endFill=1;entryX=0;entryY=0.5;entryDx=0;entryDy=0;exitX=1;exitY=0.5;exitDx=0;exitDy=0;exitPerimeter=0;" parent="1" source="xvLai2Src9pA2y4OmMQb-241" target="xvLai2Src9pA2y4OmMQb-257" edge="1">
          <mxGeometry width="100" height="100" relative="1" as="geometry">
            <mxPoint x="340" y="190" as="sourcePoint" />
            <mxPoint x="420" y="250" as="targetPoint" />
          </mxGeometry>
        </mxCell>
        <mxCell id="xvLai2Src9pA2y4OmMQb-329" value="" style="edgeStyle=orthogonalEdgeStyle;strokeColor=#2F5B7C;strokeWidth=3;html=1;endArrow=block;endFill=1;exitX=0;exitY=0.5;exitDx=0;exitDy=0;entryX=1;entryY=0.5;entryDx=0;entryDy=0;" parent="1" source="xvLai2Src9pA2y4OmMQb-257" target="xvLai2Src9pA2y4OmMQb-275" edge="1">
          <mxGeometry width="100" height="100" relative="1" as="geometry">
            <mxPoint x="200.5" y="469.5" as="sourcePoint" />
            <mxPoint x="290.5" y="520.5" as="targetPoint" />
          </mxGeometry>
        </mxCell>
        <mxCell id="xvLai2Src9pA2y4OmMQb-339" value="URL&lt;br&gt;Webhook" style="edgeStyle=orthogonalEdgeStyle;rounded=0;orthogonalLoop=1;jettySize=auto;html=1;entryX=1;entryY=0.5;entryDx=0;entryDy=0;exitX=0.007;exitY=0.68;exitDx=0;exitDy=0;exitPerimeter=0;" parent="1" source="xvLai2Src9pA2y4OmMQb-338" target="xvLai2Src9pA2y4OmMQb-257" edge="1">
          <mxGeometry relative="1" as="geometry" />
        </mxCell>
      </root>
    </mxGraphModel>
  </diagram>
</mxfile>
